<?xml version="1.0" encoding="utf-8"?>
<!-- Generator: Adobe Illustrator 28.1.0, SVG Export Plug-In . SVG Version: 6.00 Build 0)  -->
<svg version="1.1" id="Layer_1" xmlns="http://www.w3.org/2000/svg" xmlns:xlink="http://www.w3.org/1999/xlink" x="0px" y="0px"
	 viewBox="0 0 535.88 497.69" style="enable-background:new 0 0 535.88 497.69;" xml:space="preserve">
<path d="M522.99,97.28c-1.74-1.74-3.95-2.67-6-2.98c-3.06-0.19-5.26,0.62-6.73,1.28c-7.58,3.64-13.12,10.06-18.77,15.9
	c-5.84,6.11-11.45,12.34-17.1,18.42c-11.14,12.07-22.48,23.68-35.36,33.66c-19.07,14.97-41.21,26.23-63.41,36.41
	c-13.46,6.15-32.58,14.63-45.73,21.28c-11.76,5.69-23.52,13.5-32.23,23.72c-8.51,10.14-15.01,21.94-19.73,34.13
	c-4.78,11.91-8.19,24.17-10.39,36.63c-2.2-12.46-5.61-24.73-10.39-36.63c-4.72-12.19-11.18-23.99-19.73-34.13
	c-8.71-10.21-20.47-18.03-32.23-23.72c-13.16-6.65-32.27-15.13-45.73-21.28c-22.21-10.18-44.34-21.43-63.41-36.41
	c-12.88-9.98-24.22-21.59-35.36-33.66c-5.65-6.07-11.26-12.3-17.06-18.42c-5.69-5.84-11.22-12.27-18.8-15.9
	c-1.47-0.66-3.68-1.47-6.73-1.28c-2.05,0.31-4.26,1.24-6,2.98c-9.17,9.71,2.94,30.84,7.74,40.59c7.12,12.85,15.79,24.96,25.81,35.79
	c-1.55-0.39-3.13-0.62-4.76-0.7c-11.37-0.62-19.08,8.94-17.14,19.96c1.39,8.32,5.77,14.55,11.38,19.85
	c1.93,1.82,3.95,3.52,6.07,5.15c-10.02,1.12-15.05,11.1-11.99,21.47c2.48,9.17,9.4,16.52,16.91,21.98c0.58,0.43,1.16,0.81,1.74,1.16
	c-1.43,0.89-2.78,2.05-3.83,3.52c-9.02,14.01,3.64,31.18,15.75,38.61c1.55,0.97,3.13,1.86,4.76,2.67c-2.01,1.08-3.87,2.67-5.34,4.72
	c-9.48,14.63,4.72,32.27,18.38,38.07c7.35,2.94,15.82,3.95,24.57,3.44c-0.97,1.24-1.78,2.63-2.48,4.14
	c-5.42,11.3,1.7,24.68,12.77,29.48c8.32,3.17,17.22,4.06,25.69,3.37c10.14-0.97,20.08-3.64,29.33-7.89
	c7.85,11.84,21.51,20.82,36.45,16.91c5.96-1.66,10.33-4.76,14.08-7c7.16-4.37,14.74-7.51,23.21-9.4c17.88-4.85,35.25-4.72,52.78,0
	c8.44,1.9,16.02,5.03,23.18,9.4c3.75,2.24,8.12,5.34,14.08,7c14.94,3.91,28.59-5.07,36.45-16.91c9.25,4.26,19.23,6.93,29.33,7.89
	c8.47,0.7,17.41-0.19,25.69-3.37c11.07-4.8,18.19-18.18,12.77-29.48c-0.7-1.51-1.51-2.9-2.48-4.14c8.74,0.5,17.22-0.5,24.57-3.44
	c13.66-5.8,27.86-23.45,18.42-38.07c-1.47-2.05-3.37-3.64-5.38-4.72c1.62-0.81,3.21-1.7,4.76-2.67
	c12.11-7.43,24.76-24.61,15.75-38.61c-1.04-1.47-2.4-2.63-3.83-3.52c0.58-0.35,1.16-0.74,1.74-1.16
	c7.51-5.46,14.43-12.81,16.91-21.98c3.06-10.37-1.97-20.35-11.99-21.47c2.13-1.63,4.14-3.33,6.07-5.15
	c5.61-5.3,9.98-11.53,11.38-19.85c1.93-11.03-5.76-20.58-17.14-19.96c-1.63,0.08-3.21,0.31-4.76,0.7
	c10.02-10.83,18.69-22.94,25.81-35.79C520.05,128.12,532.16,106.99,522.99,97.28z"/>
</svg>
