<?xml version="1.0" encoding="utf-8"?>
<!-- Generator: Adobe Illustrator 28.1.0, SVG Export Plug-In . SVG Version: 6.00 Build 0)  -->
<svg version="1.1" id="Layer_1" xmlns="http://www.w3.org/2000/svg" xmlns:xlink="http://www.w3.org/1999/xlink" x="0px" y="0px"
	 viewBox="0 0 535.88 497.69" style="enable-background:new 0 0 535.88 497.69;" xml:space="preserve">
<path d="M534.41,380.18c-0.98-1.17-1.97-2.33-2.95-3.5c0.06-0.03,0.12-0.06,0.18-0.08c-1.26-1.17-2.51-2.33-3.77-3.5
	c0.1-0.08,0.2-0.16,0.3-0.24c-2.05-2.54-4.19-5.01-6.13-7.63c-3.77-5.09-7.4-10.29-11.16-15.41c-2.18-2.97-4.38-5.94-6.75-8.76
	c-3.76-4.48-7.59-8.9-11.54-13.22c-2.48-2.71-5.47-4.99-7.81-7.81c-4.83-5.82-9.33-11.91-14.07-17.8
	c-4.11-5.1-8.43-10.02-12.54-15.11c-3.28-4.06-6.41-8.25-9.92-12.78c0.46,0.1,0.9,0.17,1.36,0.26c-2.4-1.41-4.68-2.99-6.82-4.72
	c-6.21-5.04-9.91-11.17-13.07-18.13c0.19,2.46,1.21,5.11,3.3,9.42c-2.36-1.36-4.06-2.69-5.98-3.4c-6.2-2.3-12.44-4.5-18.73-6.52
	c-4.81-1.54-11.23-1.25-8.66-9.98c5.46-2.89,11.58-6.14,17.72-9.39c2.07,3.06,3.78,5.6,5.5,8.14c0.32-0.19,0.63-0.38,0.95-0.57
	c-1.27-2.22-2.55-4.44-3.75-6.52c0.29,0.02,0.58,0.04,0.87,0.06c-3.7-7.09-7.66-14.05-11.49-21.09c-0.81-0.38-1.6-0.81-2.38-1.13
	c-0.4,0.7-0.95,1.65-1.66,2.9c-2.14-4.27-3.99-7.96-6.02-11.99c-1.01-0.06-1.01-0.06-3.14,15.05c-3.48-1.75-6.98-3.57-10.53-5.26
	c-3.53-1.68-7.13-3.22-11.34-5.1c-2.34-13.07-4.74-26.46-7.14-39.85c-0.43-0.14-0.86-0.29-1.29-0.43c1.37-4.16,2.74-8.32,4.52-13.69
	c2.52,2.77,3.86,4.25,5.19,5.72c0.21-0.11,0.41-0.21,0.62-0.32c-1.03-1.49-2.06-2.98-3.1-4.48c7.42-5.18,7.8-5.16,11.23,0.25v-5.85
	c1.23-0.42,2.23-0.77,3.43-1.19c-2.33-2.12-4.33-3.93-6.61-6v-2.62c0.63-0.17,1.28-0.35,1.55-0.42c0.34,0.67,0.64,1.25,0.94,1.84
	c0.31-0.11,0.61-0.21,0.92-0.32c-0.23-1.22-0.47-2.45-0.77-4.04c-1.02,0.74-1.88,1.36-3.17,2.29v-4.71
	c1.16,0.23,2.38,0.46,4.38,0.85c0.07,0.09,0.18,0.23,0.16,0.19c2.49-0.83,4.6-1.54,6.8-2.27c-0.15-0.24-0.48-0.78-1.2-1.94
	c1.76-0.24,3.1-0.42,4.95-0.67c0.42-0.55,1.21-1.56,2-2.57l-0.58-0.89c-2.57,1.03-5.15,2.07-8.09,3.25
	c-0.5-0.76-1.13-1.72-2.14-3.24v-2.47c1.01,0.8,1.68,1.32,1.95,1.54c1.66-0.51,2.95-0.91,3.98-1.23c0.82-2.03,1.58-3.89,2.46-6.06
	c-0.86-0.46-1.77-0.93-2.67-1.41c1.14-0.3,2.28-0.6,3.68-0.98c-2.12-4.03-4.28-8.15-6.47-12.32c-0.4,0.42-0.84,0.89-1.43,1.51
	c0.25,0.31,0.61,0.75,0.96,1.19l-0.56,0.61c-2.13-1.94-4.26-3.88-6.36-5.79c-0.23,0.71-0.48,1.47-0.72,2.23
	c-0.15-0.04-0.3-0.09-0.45-0.13c0.04-0.37,0.08-0.74,0.15-1.39c-1.83,1.3-3.47,2.47-5.11,3.64c-0.95-1.89-2.38-3.68-2.76-5.67
	c-1.01-5.28,2.23-8.75,4.72-6.32c1.78-0.55,3.26-1.01,4.73-1.47c-1.2-0.41-2.42-0.76-3.6-1.22c-2.44-0.19-4.88-0.31-7.34-0.39
	c-0.89,4.59-1.78,9.18-2.61,13.49c-18.6-1.64-37.36-3.29-56.13-4.94c0.01,0.05,0.02,0.1,0.04,0.15c-1.24-0.08-2.49-0.11-3.72-0.24
	c-1.83-0.2-3.65-0.48-5.44-0.94c-1.13-0.19-2.26-0.39-3.39-0.58c-0.18-0.65-0.36-1.31-0.55-2.01c2.59-0.18,5.02-0.35,7.46-0.52
	c20.53-1,41.19-0.25,61.44-4.35v-0.14c-2.06-0.04-4.12-0.06-6.18-0.06c-0.01,0.1-0.04,0.2-0.04,0.29c-0.11-0.1-0.22-0.2-0.33-0.29
	c-2.94,0-5.88,0.03-8.82,0.05c0.03,0.26,0.07,0.53,0.1,0.8c-15.03,0.66-29.57,1.31-43.68,1.93c-0.97-2.04-1.45-3.06-2.22-4.69
	c9.35-1.85,18.3-3.63,28-5.55c-2.34-0.62-4.03-1.07-5.62-1.5c-1.74,0.23-3.53,0.46-4.8,0.62c-2.81-7.55-5.47-14.71-8.13-21.87
	c-0.19,0.09-0.38,0.18-0.57,0.27c-3.11-4.81-6.2-9.62-9.34-14.41c-0.23-0.35-0.69-0.54-1.07-0.8c1.43,2.77,2.77,5.58,4.31,8.29
	c4.81,8.46,9.92,16.79,11.41,26.66c0.16,1.06,0.17,2.14,0.24,3.11c-5.5,1.41-10.9,2.8-16.3,4.19l-0.13-0.53
	c-6.22,1.59-12.43,3.19-18.11,4.64C280.64,60.17,273.32,30.08,266,0c-0.44,0.09-0.87,0.19-1.31,0.28c0.49,2.05,0.99,4.1,1.47,6.14
	c1.26,5.26,2.6,10.5,3.74,15.79c1.15,5.35-3.39,8.08-5.85,11.66c-7.56,11.06-15.99,21.58-22.88,33.02
	c-4.86,8.07-7.79,17.3-11.72,26.32c-8.42-1.48-17.92-3.16-27.18-4.79c1.25-5.73,2.49-11.38,3.73-17.03
	c-0.23-0.03-0.47-0.06-0.7-0.09c-0.24-5.2-0.47-10.4-0.71-15.6l0.52,0.03c-0.46-4.68-0.91-9.38-1.39-14.29
	c-0.28-0.59-0.56-1.18-0.86-1.76c-0.61-1.21-1.47-2.38-2.13-3.58c-0.13,0.19-0.25,0.37-0.32,0.52c-0.46,0.94-0.85,1.91-1.22,2.9
	c1.77,1.31,2.48,3.57,2.38,6.69c-0.18,5.93,0.18,11.88,0.07,17.81c-0.12,6.82-0.5,13.63-0.75,20.21c-2.11,0.4-2.8,0.54-3.43,0.66
	c-0.67,1.16-1.31,2.27-2.42,4.2c-7.56-5.3-14.76-10.36-22.07-15.49c-3.35,1.7-21.62-3.81-23.87-7.41c-0.54,2.42-1.09,4.9-1.76,7.88
	c-2.02-1.21-2.99-1.79-3.96-2.38c-0.29,0.22-0.58,0.44-0.87,0.66c1.93,3.22,3.86,6.43,5.79,9.65c0.53-4.05,1.06-8.11,1.58-12.06
	c17.67,4.64,33.63,10.11,45.97,21.47c-1.19,12.23-2.39,24.52-3.59,36.81c-0.22,0.03-0.45,0.05-0.67,0.08
	c-1.05,3.01-2.09,6.02-3.45,9.92c-3.79-3.92-6.64-7.34-9.97-10.21c-9.65-8.33-15.32-19.47-21.74-30.05
	c-3.1-5.11-5.47-10.65-8.17-15.99c1.24,3.27,2.33,6.61,3.77,9.8c2.04,4.51,4.35,8.91,6.54,13.37c-4.22,2.14-8.12,3.99-11.89,6.09
	c-1.17,0.65-1.91,2.02-2.96,2.94c-1.5,1.31-3.09,2.5-4.65,3.75c-1.37-1.97-3.65-3.81-3.96-5.93c-1.34-9.08-2.45-18.22-2.96-27.37
	c-0.37-6.63,5.18-10.28,8.91-14.98c0.88,0.78,1.48,1.32,2.09,1.87c0.17-1.92,0.33-3.69,0.56-6.24c-0.15-0.18-1.05-1.26-2.02-2.41
	c1.05-0.99,1.89-1.78,2.81-2.64c-5.57-1.73-11.56-1.31-17.64-0.32c-1.24,6.22-2.41,12.08-3.57,17.93c-0.24-0.11-0.49-0.23-0.73-0.34
	c-0.67,0.79-1.34,1.57-2.09,2.47c-0.84-0.22-1.85-0.49-2.86-0.76l-0.56,0.81c0.97,1.1,1.93,2.2,2.9,3.29
	c0.16-0.38,0.31-0.76,0.47-1.13c2.23,0.68,4.46,1.36,6.68,2.03c-0.03,0.25-0.05,0.51-0.08,0.76c1.21,0.81,2.42,1.62,3.62,2.43
	c-0.28,0.5-0.55,1-0.83,1.5c-4.76-2.4-9.51-4.8-14.62-7.38c-0.21,0.65-0.61,1.91-1.21,3.77c-1.73,0.3-3.9,0.68-6.07,1.05
	c0.79-3.81,1.72-7.61,2.29-11.45c0.21-1.41-0.45-2.94-0.71-4.42l-1.31,0.16c0.26-0.91,0.52-1.83,0.79-2.74
	c-0.36-0.22-0.72-0.44-1.08-0.66c-4.45,6.32-8.89,12.63-13.77,19.55c0.11-0.05-0.55,0.24-1.37,0.6c-0.32,1-0.68,2.1-1.31,4.07
	c-1.97-1.82-3.64-3.36-6.16-5.68c2.26-0.33,2.88-0.42,4.4-0.65c-2.3-1.92-4.09-3.43-5.89-4.93c0.18-0.3,0.35-0.59,0.53-0.89
	c1.46,0.65,2.92,1.3,4.38,1.94c0.11-0.17,0.22-0.35,0.33-0.52c-2.3-1.64-4.61-3.28-6.91-4.92c0.2-0.36,0.4-0.73,0.6-1.09l7.04,2.74
	c0.06-0.16,0.13-0.33,0.19-0.49c-1.03-0.76-2.06-1.53-3.36-2.5c0.64-1.13,1.17-2.07,1.64-2.91c1.78,0.44,3.14,0.78,4.5,1.11
	c0.17-0.25,0.35-0.51,0.52-0.76c-3.02-2.02-6.04-4.04-9.06-6.06c1.06-1.42,1.78-2.4,2.51-3.38c-0.2-0.33-0.41-0.66-0.61-0.99
	c-4.38,2.11-8.77,4.22-13.18,6.35c-0.82-2-1.55-3.8-2.51-6.15c6.53-9.36,8.46-21.87,18.02-30.5c-1.71-2.57-3.66-5.51-5.62-8.45
	c-0.27,0.08-0.54,0.16-0.82,0.24c0.69,2.27,1.37,4.55,2.13,7.06c-0.77,0.81-1.7,1.78-2.97,3.11V19.67c0.5-0.09,0.99-0.19,1.49-0.28
	c0.73,0.97,1.46,1.94,2.58,3.42c0.32-0.78,0.72-1.74,1.03-2.48c1.63,1.16,2.64,1.88,4.13,2.94c0.23-1.85,0.39-3.06,0.63-4.97
	c-2.29-1.45-4.74-2.99-7.18-4.54c-0.24,0.36-0.48,0.71-0.73,1.07c-0.57-0.63-1.13-1.27-2-2.24c-0.66,0.7-1.22,1.3-1.91,2.05
	c0.94,0.56,1.59,0.95,2.23,1.33c-2.25,5.44-4.47,10.79-6.68,16.13c-0.3,0.72-0.76,1.44-0.81,2.18c-0.24,3.64,0.05,7.37-0.65,10.91
	c-0.76,3.81-2.47,7.43-3.65,11.16c-2.38,7.51-4.53,15.09-7.05,22.55c-2.37,7.02-5.13,13.91-7.66,20.88
	c-1.4,3.84-2.71,7.72-4.14,11.82c-10.98-5.6-22.32-10.3-27.46-23.64c-0.01,0.03-0.01,0.04-0.02,0.06c0.04-0.16,0.18-0.67,0.33-1.23
	c-0.51-0.39-1-0.76-1.51-1.14c1-5.65-1.95-12.31-6.16-12.77c1.09,2.57,2.1,4.95,3.15,7.43c-2.28,0.59-4.23,1.1-5.77,1.5
	c-3.7-3.02-7.01-5.73-11.42-9.33c0.53,1.83,0.52,2.19,0.7,2.36c4.02,3.88,7.97,7.83,12.16,11.5c0.73,0.64,2.51,0.09,4.32,0.09
	c2.11,4.24,4.4,8.83,6.8,13.62c-1.81,0.58-2.79,0.89-3.7,1.18c-1.51-1.12-2.97-2.2-5.39-3.98c0.47,2.17,0.68,3.11,0.85,3.88
	c1.09,0.54,1.92,0.96,3.05,1.52c-1.21,0.8-2.01,1.33-3.2,2.13c1.5,0.72,2.55,1.22,4.45,2.13v18.66c-2.07-1.58-4.43-3.37-6.78-5.16
	l-0.73,0.55c1.92,2.12,3.83,4.24,5.65,6.25c-0.55,1.19-1.1,2.39-1.48,3.22c-5.27-8.82-9.34-18.32-8.73-29.31
	c-0.45,0.04-0.9,0.08-1.35,0.13c-0.68,3.03-1.35,6.06-2.22,9.95c-1.2-2.58-2.03-4.36-2.86-6.14c-0.3,0.04-0.59,0.09-0.89,0.13
	c0.23,1.55,0.06,3.31,0.75,4.61c2.29,4.32,5.11,8.37,7.29,12.74c1.6,3.22,2.52,6.79,3.82,10.43c-4.97,3.54-9.7,6.91-14.42,10.28
	c7.15,0.88,10.91-4.66,16.55-7.65c3.95,6.98,7.92,13.99,12.1,21.37c-1.56,5.14-3.36,10.7-4.9,16.33c-0.76,2.79-1.05,5.72-1.52,8.59
	c-0.84,5.12-1.8,10.23-2.45,15.38c-0.74,5.91-0.54,12.01-1.94,17.74c-2.05,8.34,0.14,16.35,0.58,24.49
	c0.49,9.11,0.99,18.24,2.03,27.29c0.59,5.15,2.39,10.16,3.34,15.29c0.18,0.98-0.75,2.73-1.66,3.25c-3.03,1.73-6.29,3.07-9.11,5.42
	c3.71-1.23,7.42-2.46,11.36-3.77c2.25,5.66,4.42,11.12,6.59,16.59c0.44-0.06,0.88-0.12,1.31-0.17c-0.1-1.46,0.08-3.01-0.36-4.36
	c-1.16-3.54-2.93-6.91-3.74-10.52c-0.33-1.49,0.73-3.87,1.95-4.99c1.77-1.61,4.25-2.43,6.91-3.84c0.27,1.83,0.5,3.46,0.73,5.06
	c-1.01,0.66-1.76,1.15-3.54,2.32c1.9-0.41,2.58-0.55,3.27-0.7c2.77,3.32,2.92,11.73,0.11,14.9c0.75,0.13,1.38,0.24,1.99,0.35
	c1.41,1.3,1.74,8.69,0.9,10.31c-2.73,5.27-5.24,10.65-7.84,15.99c0.48,0.24,0.96,0.49,1.44,0.73c2-4.48,4-8.97,5.25-11.78
	c2.97,1.31,5.63,2.48,8.28,3.65c0.01,0.88,0.03,1.75,0.04,2.63c-2.85,2.09-5.7,4.18-8.56,6.27c0.13,0.18,0.26,0.36,0.39,0.55
	c2.59-1.72,5.18-3.43,7.4-4.9c0.56,4.74,1.09,9.28,1.64,13.94h2.55c-0.44-1.79-0.85-3.43-1.29-5.22c0.45-0.6,0.96-1.27,1.66-2.19
	c-0.78-0.19-1.31-0.32-1.79-0.44v-7.42c7.75,9.19,14.85,17.6,22.09,26.19c0.21,1.15,0.45,2.47,0.71,3.88
	c1.03,0.83,2.16,1.72,3.28,2.62c0.34-0.15,0.68-0.31,1.02-0.46c-0.56-1.62-0.74-3.55-1.75-4.82c-6.41-8.06-13-15.98-19.56-23.92
	c-1.26-1.53-2.98-2.77-3.91-4.46c-2.66-4.85-5.64-9.67-7.35-14.88c-2.1-6.44-3.06-13.25-4.48-19.92c-0.14-0.68-0.02-1.42-0.02-1.61
	c1.17-1.34,2.04-2.34,3.74-4.29c-2.05,0.57-2.86,0.79-4.05,1.12c-0.09-1.33-0.18-2.62-0.27-3.98c2.54-1.44,4.92-2.79,7.29-4.14
	c-0.14-0.35-0.29-0.69-0.43-1.04c-2.13,0.83-4.26,1.66-7.07,2.76c-0.49-3.62-1.13-6.98-1.38-10.37c-1.1-15.06-2.02-30.13-3.13-45.19
	c-0.67-9.13,0.93-17.88,3.72-26.5c0.8-2.48,1.19-5.1,1.15-8.08c-0.62,0.81-1.23,1.63-2.19,2.88c0.85-5.38,1.63-10.3,2.4-15.22
	c-0.46-0.12-0.92-0.24-1.38-0.36c-0.54,1.95-1.07,3.9-1.61,5.86c0.18,0.06,0.35,0.11,0.53,0.17c-1.18,6.49-2.2,13.02-3.63,19.45
	c-0.35,1.57-1.96,2.95-3.19,4.22c-1.08,1.12-2.45,1.97-3.81,3.02c0.39,0.6,0.71,1.07,0.99,1.5c-2.38,2.02-4.68,3.96-8.07,6.83
	c1.48-9.93,2.8-18.77,3.92-26.26c2.53-10.82,4.73-20.22,6.93-29.63c0.52-0.16,1.03-0.32,1.55-0.48c2.94,4.27,5.88,8.53,8.33,12.1
	c0.45,2.02,0.72,3.19,0.98,4.37c0.3-0.04,0.6-0.08,0.9-0.12v-5.7c0.49-0.38,0.98-0.77,1.47-1.15c0.99,1.49,1.84,3.1,3.01,4.44
	c3,3.46,8.6,5.39,7.63,11.15c-0.41,2.44-2.3,4.98-4.19,6.77c-3.68,3.48-7.85,6.45-11.79,9.67c-0.45,0.37-0.69,0.99-0.65,2.04
	c6.27-1.4,10.47-6.24,15.67-9.85v66.07c-0.09-0.02,0.55,0.11,1.27,0.25c0.33,3.36,0.66,6.62,0.99,9.89
	c0.46-0.01,0.91-0.03,1.37-0.04v-75.52c2.03-2.86,3.74-5.27,5.46-7.68c0.23,0.08,0.46,0.17,0.69,0.25
	c-0.37,1.21-0.75,2.42-1.12,3.62c0.28,0.24,0.57,0.48,0.85,0.71c1.45-1.81,3.02-3.54,4.33-5.45c1.35-1.96,2.44-4.09,4.26-7.18
	c2.31,2.87,4.61,4.93,5.92,7.5c3.18,6.22,5.87,12.68,8.81,19.01c3.32,7.13,7.76,13.39,14.34,17.94c0.25,0.17,0.56,0.26,0.18,0.09
	c-3.44-4.92-7.55-10.12-10.88-15.77c-3.35-5.66-5.92-11.78-9.19-18.41c6.65,5.27,12.18,10.67,18.64,14.53
	c8.71,5.2,6.05,13.69,8.15,20.82c-1.14,0.57-1.82,0.91-2.79,1.4c5.75,3.27,3.4,8.6,2.96,12.85c-0.63,6.13-2.73,12.11-4.48,19.31
	c3.18,5.15,10,1.39,15.08,3.4c-0.44-0.46-0.87-0.92-1.68-1.77c1.45-1.35,2.83-2.62,4.2-3.89l1.16,0.61
	c-0.25,1.66,0.02,3.71-0.87,4.87c-1.04,1.34-3.11,1.88-5.34,3.1c0.06,0.13,0.4,0.89,0.85,1.87c-0.08,0.28-0.27,0.92-0.44,1.51
	c2.05,0.52,3.95,1.01,6.54,1.67c1.04,0.75,2.66,1.92,4.39,3.17c0.22-0.44,0.54-1.1,0.84-1.71c-1.29-1.77-2.51-3.43-3.99-5.44
	c1.18-0.45,2.44-0.94,4.12-1.58c-0.22,1.19-0.36,1.91-0.52,2.79c0.96,0.17,1.92,0.33,2.95,0.51c0.31-0.58,0.6-1.13,1.02-1.93
	c0.64,0.16,1.59,0.1,1.89,0.51c3.65,4.93,8.44,9.23,8.62,16.53c-4.12-3.28-8.25-6.55-13.03-10.35c-1.23,6.25-2.61,13.27-3.99,20.29
	c0.32,0.07,0.63,0.15,0.95,0.22c1.37-4.28,2.73-8.56,4.12-12.91c0.49,0.18,1.08,0.4,2.56,0.94c-1.12-1.69-1.78-2.67-2.43-3.65
	c0.19-0.19,0.39-0.39,0.58-0.58c6.41,5.4,12.81,10.79,19.05,16.05v7.92h3.9c0.35,0.49,0.91,1.27,1.21,1.69
	c2.92-0.56,5.42-1.03,8.38-1.6c2.41,4.3,4.75,8.45,7.24,12.9c-1.46,0.29-2.29,0.46-3.37,0.68c-0.08,0.7-0.17,1.46-0.25,2.22
	c0.89,0.49,1.78,0.99,2.63,1.45c0.82-0.31,1.55-0.59,2.46-0.94c1.65,3.41,3.25,6.74,4.85,10.05c0.95,0.6,2.1,1.33,3.74,2.37
	c-1.6-4.86-6.62-8.24-4.61-14.17c-0.03-0.06-0.29-0.54-0.95-1.76c1.73-0.51,3.24-0.96,4.75-1.4c0.2,0.44,0.4,0.87,0.6,1.31
	c1.44-1.36,2.88-2.73,4.32-4.09c0,0,0,0,0,0c2.37,1.52,4.79,2.97,7.11,4.56c9.46,6.48,12.82,16.89,17.19,26.64
	c0.6,1.34,1.13,2.71,1.69,4.07c0.42-0.17,0.83-0.34,1.25-0.52c-5.97-14.54-11.93-29.09-18.01-43.91c0.52-0.45,1.13-0.97,1.75-1.51
	c5.57,6.75,10.94,13.31,16.35,19.83c4.54,5.47,9.55,10.62,13.62,16.41c7.63,10.85,9.86,23.18,9.13,36.32
	c-0.66,11.97-0.66,23.99-0.93,35.98c-0.02,0.75,0.18,1.51,1.01,2.27c0.31-6.1,0.63-12.2,0.91-18.29c0.41-8.8,0.89-17.6,1.14-26.4
	c0.34-11.7-1.61-22.71-9.78-31.91c-5.48-6.17-10.69-12.57-15.93-18.94c-0.7-0.85-0.9-2.13-1.39-3.36c-0.41,0.22-0.83,0.45-1.41,0.76
	c-3.43-4.62-6.83-9.21-10.38-13.98c2.07-1.32,3.98-2.55,6.1-3.91c0.6,1.46,0.92,2.27,1.69,4.14v-5.15c1.12-0.65,2.27-1.32,3.42-1.98
	c0.23-0.41,0.45-0.83,0.68-1.24c3.88,2.48,7.76,4.95,11.66,7.45c-1.1,1.86-1.47,2.49-1.92,3.26c6.21-1.47,9.17-0.41,13.01,6.51
	c4.05,7.3,7.21,15.08,11.2,22.64c-3.12-8.6-6.23-17.21-9.52-26.27c-6.15-4.51-12.62-9.25-19.25-14.11c0.25-0.37,0.63-0.96,0.62-0.95
	c-3.3-1.62-6.53-3.2-9.62-4.72c0.83,1.46,1.92,3.38,2.98,5.24c-0.86,0.27-2,0.63-3.47,1.09c-0.66-0.54-1.62-1.34-2.58-2.13
	c-0.24,0.12-0.48,0.23-0.73,0.35c0.38,0.87,0.77,1.75,1.43,3.24c-3.13-0.29-6.19-0.57-9.24-0.86c-0.07,0.33-0.14,0.65-0.21,0.98
	c2.51,0.52,5.03,1.04,7.72,1.59c-1.7,1.29-3.35,2.55-5.24,4c-1.61-2.22-3.13-4.32-4.65-6.41c0.64-1.72,1.27-3.45,2.09-5.69
	c-1.37,0.53-2.15,0.83-3.78,1.45c-2.8-2.95-5.81-6.1-8.81-9.26c-0.26,0.25-0.52,0.5-0.78,0.76c2.28,3.88,4.56,7.75,7.08,12.04
	c-0.24,2.02-0.24,2.02-16.72-3.12c-0.42,0.4-0.91,0.86-2.35,2.22c6.13,1.65,11.48,3.1,16.7,4.51c-2.1,4.43-8.26,4.99-13.03,0.54
	c-2.58-2.41-5.19-4.77-8.05-7.39c4.17-4.52,1.01-8.85-0.99-13.34c-0.41,1.62-0.81,3.23-1.38,5.47c0.17,0.12,0.72,0.51,1.27,0.9
	c-0.06,0.22-0.13,0.44-0.19,0.66c-0.71-0.18-1.69-0.12-2.08-0.57c-2.19-2.51-4.18-5.19-6.35-7.72c-1.03-1.2-2.31-2.2-4.06-3.84
	c0-0.03-0.06-0.96-0.12-1.98c0.3-0.14,0.57-0.27,0.74-0.35c1.09-7.44,2.1-14.28,3.17-21.56c1.27-0.3,3.62-0.85,6.61-1.56
	c0.97,0.69,2.63,1.86,4.28,3.03c0.19-0.26,0.38-0.53,0.57-0.79c-0.67-0.63-1.33-1.26-2.04-1.92v-3.8c1.53-1.08,2.76-1.95,3.99-2.82
	c0,0,0,0.01,0.01,0.01c2.21,1.51,4.42,3.02,6.63,4.54c0.19-0.24,0.38-0.47,0.57-0.71c-0.24-0.65-0.49-1.3-1.23-3.25
	c4.76,1.68,8.66,3.06,14.26,5.03c2.56-0.25,5.77,2.12,4.67,5.51c-2.16-0.55-4.34-1.11-6.34-1.63c-0.28-1.42-0.48-2.45-0.69-3.55
	c-1.26,1.12-2.2,1.96-3.35,2.98c0.03,0.05,0.44,0.66,0.91,1.38c-0.98,0.81-1.89,1.55-2.8,2.3c0.04,0.34,0.07,0.68,0.11,1.02
	c2.44-0.23,4.88-0.45,7.59-0.7c3.46,4.72,6.99,9.54,11.03,15.06c1.19,0.55,3.23,1.48,4.63,2.13c1.46-1.74,2.58-3.08,3.62-4.32
	c3.06,2.24,5.74,4.19,8.42,6.14c0.21-0.26,0.42-0.51,0.63-0.77c-2.54-2.43-5.08-4.85-7.62-7.28c0.07-0.41,0.14-0.82,0.21-1.23
	c1.01,0.18,2.37,0.01,2.96,0.61c2.17,2.19,4.08,4.63,6.11,6.96c0.36,0.41,0.83,0.73,1.34,1.18v-4.62
	c5.46-2.95,10.94-3.33,16.71-1.54c8.45,2.62,15.07-0.31,20.41-7.07c0.56,0.22,1.19,0.46,2.51,0.96c-1.32-1.93-2.29-3.34-3.93-5.73
	c11.65,3.14,19.34,11.12,28.35,16.68l0.82-1.12c-0.59-0.35-1.17-0.71-1.17-0.71c1.93-4.53,3.81-8.94,5.69-13.35
	c1.82,0.42,3.91,0.9,6,1.38c0.06-0.26,0.11-0.52,0.17-0.78c-1.45-0.52-2.89-1.05-4.33-1.57c-0.5-2.02-0.96-3.87-1.5-6.08
	c-0.78,0.41-1.99,1.05-3.2,1.68c-5.83,3.75-12,2.6-18.53,1.62c4.09-2.72,7.56-5.03,11.45-7.62c0.09,0.03,0.29,0.11,0.31,0.11
	c1.86-2.59,3.59-5.01,5.93-8.27c0.14-0.1,0.63-0.44,1.22-0.85c-0.55-0.48-1.03-0.9-2.01-1.75c1.04,0.23,1.49,0.32,2.34,0.51
	c-0.51-0.83-0.88-1.43-1.33-2.16c0.39-0.43,0.85-0.94,1.09-1.2c1.04,0.24,1.88,0.43,2.79,0.64c0.27-0.79,0.47-1.35,0.77-2.24
	c2.01,1.06,3.85,2.03,6.82,3.6c-1.6-2.32-2.57-3.71-4.09-5.92c0.83-1.25,2.17-3.27,3.7-5.56c-0.31-2.75-0.66-5.88-1.07-9.46h9.62
	c4.7,6.48,0.98,10.65-2.76,14.36c-0.7,3.77-1.32,7.14-1.97,10.63c0.44,0.48,0.91,0.99,1.45,1.58c-1.64,1.76-3.26,3.51-5.03,5.41
	c0.2,0.22,0.71,0.78,1.27,1.4c0.77-0.08,1.53-0.17,2.21-0.24c0.18-1.16,0.36-2.29,0.46-2.95c1.46-0.92,2.58-1.63,3.69-2.33
	c-0.37-0.06-0.75-0.11-1.12-0.17c0.56-3.88,1.11-7.76,1.67-11.64c0.37,0.05,0.75,0.1,1.12,0.15c0.23-1.32,0.25-2.73,0.75-3.94
	c0.49-1.18,1.47-2.17,2.55-3.69c3.61,5.92,6.69,12.3,14.36,14.21c6.83,1.7,13.5,4.06,20.41,6.18c-3.74,1.96-7.51,3.94-11.28,5.92
	c0.2,0.44,0.4,0.88,0.6,1.32c4.8-2.34,9.61-4.69,14.34-6.99c1.8,4.88,3.45,9.33,5.09,13.78c0.43-0.14,0.87-0.28,1.3-0.42
	c-1.38-4.15-2.77-8.3-4.14-12.4c4.48-2.25,15.36-0.56,18.82,2.64c0.18,0.16,0.62,0.04,0.95,0.03c-0.94,6.58,3.93,14.3,11.9,16.98
	c4.51,1.52,7.1,3.53,6.94,8.48c-0.91,0.15-2.13,0.34-3.35,0.54c4.79-0.13,4.94,3.58,5.99,6.58c3.8,10.92,7.28,21.98,11.6,32.7
	c5.29,13.12,11.31,25.95,16.98,38.92c5.44,12.43,11.04,24.8,16.21,37.35c4.06,9.86,7.44,20,11.38,29.91
	c3.45,8.67,7.37,17.15,10.9,25.79c8.22,20.11,16.32,40.27,24.48,60.41c0.3,0.74,0.68,1.44,1.02,2.16h1.44
	c-2.2-5.87-4.32-11.77-6.63-17.59c-7.07-17.76-14.16-35.5-21.37-53.2c-1.79-4.4-4.27-8.53-6.04-12.94
	c-2.42-6.01-4.31-12.23-6.71-18.24c-4.88-12.21-9.84-24.39-15-36.49c-3.87-9.08-8.23-17.96-12.14-27.02
	c-2.86-6.62-5.33-13.4-8.02-20.09c-1.92-4.76-3.93-9.49-5.86-14.25c-0.66-1.62-1.15-3.31-1.9-5.49c2.97-0.33,5.78-0.65,8.9-1
	c0,0,0.23-0.53,0.64-0.81c2.5-1.7,4.99-3.41,7.59-4.95c0.65-0.39,2.13-0.55,2.45-0.17c2.13,2.56,4.33,4.19,7.76,1.14
	c1.14,4.93,2.13,9.26,3.13,13.59c0.42-0.08,0.83-0.16,1.25-0.24c-0.73-4.63-1.46-9.27-2.27-14.41c0.85-0.79,2.22-2.08,3.83-3.59
	c-0.96-1.54-1.95-3.13-2.83-4.54c2-3.03,3.91-5.93,6.15-9.33c1.81,2.78,3.47,5.34,5.4,8.29c0.2-0.78,0.32-0.99,0.3-1.18
	c-0.16-1.07-0.35-2.13-0.53-3.19c1.15,0.78,2.69,1.32,3.37,2.4c1.88,2.97,3.41,6.16,5.89,8.49c4.49,5.33,8.98,10.67,13.5,16.04
	c-1.04,0.6-1.76,1.02-3.64,2.11c2.27,0.3,3.29,0.44,5.43,0.72c2.74,3.18,6.27,7.08,9.57,11.18c7.75,9.63,15.35,19.39,23.09,29.03
	c7.65,9.54,15.58,18.87,23.07,28.52c4.26,5.49,8.34,11.13,12.41,16.77c0.03-0.62,0.08-1.23,0.1-1.85c0.02-0.8,0.03-1.6,0.04-2.39
	C535.39,382.05,534.9,381.11,534.41,380.18z M42.86,311.9c0.25,1.11,0.5,2.21,0.75,3.32c-0.48,0.09-0.96,0.18-1.44,0.27
	c-0.17-1.12-0.34-2.24-0.51-3.35L42.86,311.9z M32,208.9c0.32,6.64,0.54,13.28,0.98,19.91c0.86,12.79,1.83,25.56,2.8,38.34
	c0.11,1.41,0.77,2.78,0.83,4.19c0.17,3.72,0.46,7.49-4.5,8.78c-1.52,0.4-2.79,1.73-5.23,3.33c-1.77-9.96-3.42-19.2-5.08-28.51h0.99
	v-13.09c0.36-0.01,0.72-0.03,1.07-0.04c-0.2-1.6-0.39-3.19-0.64-5.21c-0.95,0.54-1.76,1-2.76,1.57c-2.99-5.58-1.87-11.63-1.21-17.46
	C20.07,213.67,28.28,213.71,32,208.9z M107.11,254.65c-0.47-0.63-0.94-1.27-1.4-1.9c0.21-0.16,0.42-0.31,0.63-0.47
	c0.46,0.64,0.92,1.27,1.39,1.91C107.52,254.34,107.31,254.49,107.11,254.65z M398.49,237.87l-0.44-0.45
	c0.7-0.77,1.41-1.55,2.35-2.58c0.08,0.01,0.69,0.07,1.32,0.14C400.65,235.94,399.57,236.9,398.49,237.87z M401.66,232.64
	c0.64-0.57,1.33-1.18,2.02-1.8c0.78,1.32,1.16,1.97,1.72,2.94c-1.33,0.42-2.47,0.79-3.6,1.15
	C401.76,234.21,401.71,233.5,401.66,232.64z M404.97,236.58c-0.09-0.13-0.18-0.27-0.27-0.4l2.23-1.94c0.19,0.26,0.37,0.52,0.56,0.78
	C406.65,235.54,405.81,236.06,404.97,236.58z M416.85,230.98c-1.91,0.71-3.54,1.32-5.17,1.93c-0.13-0.22-0.26-0.45-0.39-0.67
	c1.22-0.82,2.44-1.65,3.73-2.52C415.47,230.03,415.97,230.37,416.85,230.98z M414.02,226.75c-0.62,0.08-1.25,0.15-2.04,0.25
	c0.23,0.53,0.46,1.07,0.69,1.61c-1.98,1.17-3.96,2.34-5.89,3.48c-0.76-0.35-1.54-0.71-2.98-1.37c0.74-0.66,1.48-1.32,2.21-1.97
	c1.29,0.06,2.49,0.11,3.69,0.16c0.09-0.21,0.18-0.41,0.27-0.62c-0.69-0.36-1.37-0.71-2.3-1.19c2.06-0.38,4.13-0.77,6.21-1.16
	C413.93,226.21,413.98,226.48,414.02,226.75z M409.72,218.12c0.92,1.73,1.83,3.44,2.48,4.68c-3.45,2.34-6.48,4.39-8.91,6.03
	C405.11,225.82,407.28,222.19,409.72,218.12z M398.2,226.01c-0.38-0.67-0.61-1.08-0.91-1.62c0.63-0.23,1.12-0.41,1.62-0.6
	c-0.66-1.04-1.27-2.01-1.65-2.61c0.88-1.62,1.56-2.88,2.27-4.18c-0.21-0.48-0.41-0.94-0.48-1.1c0.01,0.02,0.02,0.04,0.03,0.07
	c0.25-3.41,0.41-5.69,0.62-8.57c2.48,4,4.75,7.65,6.5,10.47c-0.27,1.55-0.4,2.27-0.52,2.98c0.26,0.11,0.52,0.23,0.78,0.34
	c-3.65,4.69-7.3,9.38-10.95,14.07c-0.29-0.19-0.58-0.38-0.87-0.58c0.85-1.94,1.7-3.89,2.14-4.91c-0.37-1.89-0.57-2.91-0.82-4.18
	C396.9,225.78,397.4,225.86,398.2,226.01z M396.81,246.46c-1.53-0.43-2.84-0.81-4.68-1.33c1.74-0.99,2.95-1.67,4.41-2.5
	C396.63,243.95,396.71,245.04,396.81,246.46z M376,208.58c6.68,3.34,13.37,6.69,19.88,9.94c-1.47,10.19-2.11,19.58-10.72,26.97
	c-3.57-12.62-6.87-24.27-10.16-35.92C375.33,209.24,375.66,208.91,376,208.58z M375.16,217.66c-11.65,2.95-21.05-3.24-31.24-6.06
	c5.06-3.64,9.96-7.16,14.98-10.76c0.26,2.02,0.53,4.13,0.86,6.75c0.91-1.17,1.51-1.93,2.36-3.02c3.39,0.96,6.9,1.95,10.61,3
	C373.55,210.97,374.37,214.36,375.16,217.66z M345.73,179.66c-0.31,0.46-0.62,0.92-1.02,1.51c-1.66-13.01,3.32-21.93,10.45-20.23
	c2.75-0.22,5.49-0.44,7.71-0.62c0.31,2.24,0.27,3.57,0.69,4.73c1.92,5.43,0.6,7.78-5.31,8.91c-0.42,3.11-0.67,6.3-1.32,9.41
	c-0.64,3.08-1.68,6.08-2.57,9.2c-2.88,0.2-5.72,0.4-9.02,0.63v-9.88c0.35-1.13,0.71-2.26,1.06-3.38
	C346.19,179.83,345.96,179.75,345.73,179.66z M360.67,175.45c0.3-0.12,0.95-0.39,2.59-1.07c-0.52,6.02-1.01,11.57-1.49,17.15
	c-1.6,0.21-2.86,0.37-4.91,0.63C358.12,186.64,359.36,181.18,360.67,175.45z M361.91,202.52c-1.03-0.55-0.67-3.68-0.52-5.67
	c-0.23-1.07-0.46-2.15-0.7-3.25c7.58-1.07,9.5,0.91,11.15,11.95C368.23,204.54,364.78,204.07,361.91,202.52z M365.98,174.58
	c1.07,4.73,2.13,9.46,3.25,14.41c-1.58,0.92-2.96,1.74-5.18,3.03c0.51-6.61,0.92-12,1.33-17.4L365.98,174.58z M380.81,147.86h-4.59
	c1.2-1.44,1.97-2.35,3.07-3.67C379.9,145.67,380.27,146.57,380.81,147.86z M363.93,103.92c0.52,0.57,1.04,1.13,1.18,1.28
	c11.08,0.56,19.82,4.05,27.52,10.4c-2.59,2.87-5.29,5.66-7.73,8.66c-1.38,1.7-2.34,3.75-3.41,5.51c-7.05-0.23-9.81-4.52-10.67-10.78
	c-0.08-0.6-1.26-1.05-1.94-1.56c0.47,1.24,0.93,2.49,1.4,3.73c-0.2,0.1-0.41,0.2-0.61,0.31c-1.28-1.47-2.56-2.93-3.86-4.42
	c0.86,0.06,1.84,0.13,2.83,0.2c1.2-3.35,0.68-5.55-3.59-5.12c-0.31-0.81-0.58-1.52-0.87-2.29c0.75-0.67,1.44-1.28,2.51-2.23
	c-1.29-0.71-2.31-1.27-3.65-2v2.35c-0.57-1.48-0.96-2.47-1.4-3.61C362.39,104.21,363.15,104.06,363.93,103.92z M374.78,129.47
	c-3.25,0.29-4.83,0.43-6.44,0.57c0.1,1.25,0.21,2.46,0.33,3.89c2-0.17,4.21-0.35,6.59-0.55c1.01,2.61,1.93,5.02,2.86,7.42
	c-1.15-1.01-2.3-2.02-3.46-3.03c-1.01,2.71-2.02,5.43-3,8.06c1.03,5.14-2.1,7.06-7.39,8.77c-0.42-0.67-1.28-2.04-2.13-3.4
	c-0.22,0.07-0.44,0.13-0.66,0.2c0.35,1.88,0.69,3.77,1.06,5.75c-25.06,9.47-51.09,10.14-76.99,8.93c2.5-4.74,4.66-9.62,7.6-13.99
	c1.07-1.59,3.94-2.03,6.03-2.87c15.04-5.99,30.1-11.95,45.16-17.9c1.15-0.45,2.36-0.73,3.06-0.94c1.53,0.51,2.65,0.88,4.13,1.38
	c0.3,1.21,0.7,2.87,1.14,4.67c-1.56,1.13-3.1,2.24-4.64,3.36c0.21,0.34,0.42,0.67,0.62,1.01c1.13-0.79,2.17-1.96,3.41-2.27
	c1.21-0.3,3.34-0.16,3.84,0.59c1.54,2.31,2.53,5,3.67,7.57c0.49,1.1,0.81,2.27,1.3,3.69c0.61-0.69,1.05-1.19,1.31-1.48
	c-2.3-6.18-4.5-12.11-6.83-18.4c-0.24-0.05-1.04-0.22-2.9-0.61c2.23-1.81,3.8-3.09,5.37-4.36c0.36,0.24,0.72,0.49,1.08,0.73
	c0.49-3.01,0.98-6.02,1.78-10.9C365.67,120.36,369.72,124.41,374.78,129.47z M343.01,192.76c-10.46-0.28-20.7-4.16-30.87-8.48
	c-2.61-0.89-5.22-1.78-7.82-2.66c-0.07,0.07-0.15,0.14-0.22,0.21c2.21,1.4,4.42,2.81,7.1,4.51c-0.19,1.08-0.5,2.82-0.81,4.51
	c-6.01,1.68-21.85-9.77-23.47-16.98c0.57-0.1,1.13-0.21,2.43-0.45c-2.53-1.53-4.49-2.71-6.44-3.89c1.36-2.32,3.02-2.11,7.7,0.8
	l-0.04,0.04c2.2-0.9,4.49-2.75,6.58-2.55c15.31,1.45,30.24-1.55,45.28-3.34c0.86-0.1,1.71-0.25,1.95-0.29
	c-0.46,4.72-1.1,9.43-1.33,14.16C342.83,183.07,343.01,187.82,343.01,192.76z M341.77,195.13c-9.82-0.9-19.65-1.81-29.6-2.72
	c0.4-2.54,0.59-3.79,0.8-5.13c9.56,2.53,19.14,5.06,28.72,7.58C341.72,194.95,341.74,195.04,341.77,195.13z M287.37,205
	c-0.87,0.59-1.76,1.18-3.3,2.22c-0.01,0.16-0.13,0.55-0.36,0.65c-1.47,0.59-3.03,0.95-4.56,1.4l-1.24-1.97
	c2.85-1.76,5.69-3.52,8.54-5.28c-0.43-0.43-0.87-0.87-1.3-1.3c0.89-0.23,1.78-0.46,2.81-0.73c-0.16-0.46-0.31-0.9-0.47-1.33
	c0.16-0.11,0.32-0.22,0.48-0.32c1.05,1.31,2.1,2.63,3.37,4.21c-1.4,0.71-2.81,1.43-4.22,2.15C287.2,204.8,287.29,204.9,287.37,205z
	 M272.3,235.84c-2.07,2.99-6.26,4.11-7.23,2.37c1.31-2.42,2.47-4.55,3.8-7C269.95,232.66,271.1,234.21,272.3,235.84z M271.39,229.83
	c2.19-0.49,4.18-0.93,7.61-1.7c-2.28,2.77-3.57,4.34-5.18,6.3C272.83,232.55,272.21,231.39,271.39,229.83z M264.18,235.82
	c-0.3-0.08-0.61-0.16-0.91-0.24c0.51-1.83,1.02-3.66,1.52-5.49c0.32,0.08,0.64,0.16,0.95,0.24
	C265.22,232.17,264.7,234,264.18,235.82z M255.06,226.73c-2.49,1.33-6.28,0.25-9.74,0.25c1.07-1.39,2.01-2.63,3.32-4.33
	c-1.45,0.18-2.49,0.3-3.53,0.43c-1.02-3.25-2.04-6.51-3.28-10.45c0.4-1.24,1.1-3.45,1.85-5.8h9.66c0.16,0.17,0.63,0.66,0.94,0.98
	v3.92c0.31,0.06,0.61,0.13,0.92,0.19c0.52-1.18,1.03-2.36,1.75-4.01c2.91,0.76,6.46,0.97,9.17,2.59c3.05,1.82,1.83,5.13-0.17,7.15
	C262.6,221,259.15,224.55,255.06,226.73z M261.98,224.45v9.2c-2.41-2.27-4.02-3.79-5.7-5.38
	C258.25,226.95,259.87,225.86,261.98,224.45z M166.22,224.62c0.22-0.68,0.44-1.36,0.66-2.03c3.66,0.94,7.33,1.88,11.03,2.82v2.08
	c3.62,0.71,7.23,1.43,11.41,2.25c-1.25,1.93-1.76,2.73-2.39,3.7c-3.83-1.1-7.74-2.22-11.65-3.35c0.15-0.28,0.3-0.57,0.45-0.85
	C172.55,227.7,169.38,226.16,166.22,224.62z M166.03,221.99c-0.54,1.37-0.84,2.12-1.57,3.98c-6.32-2.23-12.42-4.38-19.9-7.02
	c5.04-1.24,8.76-2.15,12.49-3.07c-0.02-0.13-0.03-0.25-0.05-0.38h-3.02c1.64-2.87,3.05-5.35,4.48-7.86
	c-2.64-2.55-5.01-4.84-7.37-7.12c-0.16,0.13-0.33,0.27-0.49,0.4c1.51,1.71,3.21,3.3,4.45,5.2c0.55,0.83,0.66,2.75,0.1,3.37
	c-2.5,2.74-5.32,5.18-7.98,7.68c-1.4-1.05-1.95-1.47-2.69-2.03c-0.14,0.79-0.26,1.49-0.33,1.88c-7.08,4-11.37-1.46-17.73-4.99
	c3.52-7.94,7.04-15.86,10.88-24.51c3.52,3.69,6.1,6.39,8.67,9.08c0.21-0.17,0.42-0.34,0.63-0.51c-1.33-1.6-2.62-3.22-3.98-4.78
	c-1.92-2.22-2.49-3.99,0.2-6.41c4.45-4,8.44-8.51,13.63-13.85c5.79-1.39,8.11,5.79,11.78,9.14c4.51,4.12-2.3,9.64-1.33,15.22
	c2.37-4.09,4.74-8.19,7.13-12.3c1.61,0.42,2.82,0.75,5.16,1.37c-2.05,2.49-3.64,4.5-5.31,6.44c-1.71,1.98-3.5,3.88-5.34,5.9
	c1.09,1.01,2.17,2.02,3.33,3.09c-0.43,0.79-0.82,1.49-1.41,2.58c1.44-0.15,2.47-0.26,3.55-0.38c0.72,0.81,1.46,1.64,2.21,2.48
	c-0.16,0.75-0.32,1.44-0.47,2.13l-0.04-0.04c0.73,0.87,1.46,1.74,2.34,2.79c-2.93,1.67-5.65,3.23-8.36,4.78
	c0.15,0.53,0.31,1.07,0.46,1.6c3.6-0.41,7.28-0.47,10.77-1.33c3.15-0.78,4.62,0.41,5.98,3.44c-2.69,0.74-5.24,1.42-7.76,2.17
	c-0.37,0.11-0.63,0.57-0.94,0.89c-1.95,0.11-3.92,0.46-5.84,0.3c-5.27-0.43-10.51-1.08-15.95-0.48
	C159.48,221.2,162.54,221.57,166.03,221.99z M136.71,219.37c4.48,0.87,8.95,1.74,14.22,2.76
	C146.69,226.71,140.51,225.54,136.71,219.37z M145.01,232.66c-1.86-2.6-3.33-4.67-5.07-7.11
	C145.62,225.99,146.81,227.43,145.01,232.66z M151.88,223.38c2.49,1.39,4.72,2.64,6.95,3.89c-0.12,0.55-0.24,1.09-0.36,1.64
	c-2.7-0.48-5.41-0.97-8.76-1.57C150.69,225.55,151.2,224.62,151.88,223.38z M129.6,173.49l5.22,0.25c0.05,0.26,0.11,0.51,0.16,0.77
	c-1.55,0.32-3.12,0.56-4.62,1.02c-0.48,0.15-0.79,0.83-1.17,1.29c-0.82-0.57-1.64-1.13-2.54-1.75c0.7-0.87,1.22-1.52,2.34-2.91
	c-5.61,0.37-10.49,0.69-15.74,1.04c-0.23-0.21-0.76-0.7-1.58-1.46h17.39l-0.05-0.89c4.31-0.21,8.62-0.42,12.94-0.62
	c0.03,0.41,0.06,0.82,0.1,1.23c-4.15,0.35-8.3,0.7-12.45,1.06C129.6,172.84,129.6,173.16,129.6,173.49z M102.91,174.77
	c-0.08-0.88-0.13-1.46-0.25-2.8c2.01,0.13,4.3,0.27,6.58,0.41l-0.2,1.21C106.95,173.99,104.84,174.4,102.91,174.77z M107.68,177.43
	c-0.98,0.53-1.95,1.06-2.93,1.59c-0.14-0.18-0.27-0.35-0.41-0.53c0.94-0.64,1.87-1.29,2.81-1.93
	C107.32,176.85,107.5,177.14,107.68,177.43z M97.48,152.46c-0.75,3.95-0.21,8.15-0.33,12.23c-0.03,0.99-0.36,1.96-0.56,3
	c-1.66-0.19-2.81-0.32-3.93-0.45c-5.97-15.59-0.09-44.15,11.6-52.7c0.21,1.73,0.66,2.96,0.43,4.04
	C102.31,129.88,99.63,141.12,97.48,152.46z M98.81,180.57c-1.66-3.62-3.02-6.57-4.55-9.9c0.81-0.5,1.77-1.1,3.02-1.87
	C97.8,172.78,98.27,176.39,98.81,180.57z M87.98,114.21c1.5-1.93,2.61-3.35,3.9-5c0.65,0.8,1.26,1.55,1.87,2.29
	c0.19-0.16,0.39-0.32,0.58-0.48c1.43,1.72,2.87,3.44,4.42,5.3c-1.54,1.94-3.06,3.84-4.72,5.93c-0.61-0.09-1.37-0.2-2.57-0.38
	c0.43-2.34,0.83-4.48,1.22-6.57c0.76-0.32,1.34-0.56,1.92-0.8c0-0.29,0.01-0.59,0.01-0.88C92.53,113.81,90.44,113.99,87.98,114.21z
	 M83.95,112.11c0.29-2.18,0.42-3.17,0.59-4.45c1.86-0.31,3.65-0.61,5.45-0.91c0.1,0.23,0.2,0.46,0.3,0.68
	C88.47,108.77,86.67,110.1,83.95,112.11z M106.14,102.34c-1.59,3.33-3.86,6.34-6.44,10.37c-1.76-2.32-3.51-4.62-4.96-6.55
	c2.38-2.85,4.06-5.23,6.14-7.19c0.86-0.81,3.3-1.41,3.74-0.94C105.61,99.1,106.63,101.31,106.14,102.34z M107.4,102.62
	c0.48,0.12,0.96,0.24,1.44,0.36c-0.7,3.22-1.4,6.43-2.16,9.96c-0.63,0.5-1.3,1.04-2.07,1.66c-0.51-0.41-0.98-0.79-1.59-1.28
	C104.5,109.7,105.95,106.16,107.4,102.62z M150.2,167.62c-0.19,0.39-0.38,0.78-0.57,1.17c-16.79-2.21-29.01-15.56-45.96-18.89
	c8.58,4.26,16.67,8.27,24.76,12.28c-0.19,0.48-0.38,0.95-0.57,1.43c-3.45-0.91-6.9-1.81-10.35-2.72c0.01-0.1,0.02-0.21,0.03-0.31
	c-5.54-2.2-11.08-4.39-16.36-6.49c0.23-3.61,0.43-6.7,0.69-10.66C118.43,151.72,134.31,159.67,150.2,167.62z M128.65,154.77
	c-1.95-5.11-3.9-10.23-6.23-16.36c3.67,1.59,5.51,2.39,8.04,3.49v12.42C129.86,154.47,129.25,154.62,128.65,154.77z M113.77,168.55
	c4.89-0.03,9.79-0.01,14.7,1.09h-24.13c0.02-0.46,0.05-0.91,0.07-1.37c1.82,0.18,3.64,0.37,5.46,0.55
	C111.17,168.73,112.47,168.56,113.77,168.55z M110.69,166.3l0.22-1.62l5.44,1.33C114.46,166.1,112.57,166.2,110.69,166.3z
	 M116.76,166.04h4.94c-0.04,0.35-0.08,0.71-0.12,1.06C119.98,166.75,118.37,166.4,116.76,166.04z M100.56,160.24
	c0.83-7.12,4.29-2.93,6.95-1.95c7.15,2.66,13.71,6.61,21.97,6.48c4.94-0.07,9.92,2.64,14.88,4.11c-0.11,0.47-0.21,0.93-0.32,1.4
	C129.57,166.94,115.11,163.6,100.56,160.24z M107.19,166.21h-5.8c-0.24-1.3-0.45-2.44-0.95-5.22
	C103.2,163.12,104.88,164.42,107.19,166.21z M108.97,176.56c5.29-0.78,10.26-1.51,15.52-2.29c0.25,0.63,0.47,1.19,0.77,1.92
	c-5.69,0.65-11.16,1.27-16.86,1.93C108.65,177.43,108.87,176.83,108.97,176.56z M141.8,173.16c0.5,0.83,0.89,1.47,1.33,2.2
	c-0.81,0.61-1.55,1.17-2.73,2.06c-0.76-0.81-1.56-1.64-2.65-2.8C139.38,174.03,140.43,173.65,141.8,173.16z M145.04,175.53
	c0.24,0.27,0.49,0.53,0.73,0.8c0.26-0.55,0.51-1.1,0.89-1.9c0.47,0.55,0.8,0.92,1.01,1.17c-4.38,4.46-8.74,8.9-13.32,13.56
	c-0.7-1.14-1.05-1.71-1.58-2.58C136.91,182.85,140.97,179.19,145.04,175.53z M142.79,141.42c0.45-0.43,0.9-0.87,1.35-1.3
	c4.37,3.7,9.91,6.67,12.79,11.3c3.04,4.89,3.53,11.35,5.13,17.12c-0.59,0.26-1.17,0.53-1.76,0.79
	c-5.35-8.09-10.69-16.18-16.04-24.27l0.58-0.39L142.79,141.42z M163.49,141.16c3.51,0.63,8.17,1.47,13.67,2.45
	c0.15-0.12,0.51-0.41,0.87-0.7c1.33,1.09,2.59,2.11,3.91,3.2c-0.86,1.01-1.3,1.53-1.96,2.31c0.52,0.39,1,0.75,2.11,1.59
	c0-0.08,0,0.83,0,1.79c-8.03-1.88-15.7-3.68-22.86-5.35C159.96,145.54,161.46,143.68,163.49,141.16z M162.4,138.82
	c4.15-3.75,8.81,0.56,12.33-1.9c0.96,0.8,1.81,1.49,2.63,2.17c-0.44,0.89-0.8,1.63-0.93,1.89
	C171.85,140.28,167.57,139.62,162.4,138.82z M242.08,98.78c6.16,3.8,11.89,7.93,18.14,11.04c10.1,5.03,21.24,6.44,32.3,7.91
	c12.95,1.72,25.95,3.22,38.83,5.34c4.96,0.82,9.69,3.09,14.79,4.22c-0.79-0.55-1.59-1.1-2.38-1.65l0.19-0.33
	c1.22,0.73,2.44,1.46,3.89,2.33c-3.23,1.56-6.21,3.56-9.48,4.39c-2.35,0.59-5.09-0.6-7.66-0.59c-1.47,0.01-2.94,0.84-4.27,1.8
	c-17.61,0.73-35.22-0.61-52.74-3.93c-2.51-0.59-5.1-0.98-7.52-1.83c-4.22-1.46-8.31-3.28-12.51-4.81c-3.09-1.12-5.07-2.79-6-6.26
	c-0.49-1.82-3.14-3.06-4.8-4.57C238.18,107.6,237.98,103.12,242.08,98.78z M236.99,102.68c-0.79-2.34-1.38-4.06-2.22-6.56
	c2.34,0.49,3.86,0.8,5.6,1.17C239.17,99.2,238.32,100.56,236.99,102.68z M303.85,134.59c8.61,0.2,17.21,0.71,26.14,1.11
	c-1.26,0.6-2.38,1.21-3.55,1.68c-13.58,5.44-27.29,10.58-40.71,16.4c-6.95,3.01-13.34,7.28-20.04,10.86
	c-4.03,2.15-8.2,4.06-12.27,6.15c-0.37,0.19-0.5,0.86-0.74,1.32c-0.98,0.2-1.96,0.4-2.14,0.43c-0.92-0.98-1.44-1.54-1.66-1.79
	c-1.09-5.55-2.18-11.1-3.51-17.83c9.43-1.98,19.38-3.55,29-6.28c4.88-1.39,9.15-4.88,13.73-7.36c2.11-1.14,4.31-2.13,6.65-3.72
	C297.79,135.21,300.83,134.52,303.85,134.59z M289.99,154.82c-0.46,0.72-0.93,1.44-1.39,2.16l-0.75-0.55
	c0.38-0.73,0.77-1.46,1.15-2.2C289.33,154.42,289.66,154.62,289.99,154.82z M226.19,186.26c3.01-1.26,6.05-2.48,10.69-4.36
	c-1.4,5.65-2.5,10.08-3.62,14.61c-2.04-0.39-3.42-0.65-4.61-0.88c-0.06-1.12-0.11-2-0.18-3.33c0.24-0.38,0.75-1.19,1.44-2.26
	c-1.03-0.36-1.82-0.64-2.43-0.86c-0.45-0.78-0.84-1.45-1.23-2.12c0,0,0.01,0,0.01-0.01C226.23,186.77,226.11,186.29,226.19,186.26z
	 M187.46,219.85c0.3-0.04,0.62-0.01,1.1-0.01c0.16,0.91,0.32,1.81,0.66,3.77h-14.72c-0.01-0.33-0.03-0.65-0.04-0.98
	c1.24-0.54,2.49-1.08,3.73-1.61c-0.01,0.01-0.01,0.01-0.02,0.02C181.27,220.64,184.37,220.24,187.46,219.85z M186.96,213.43
	c1.84-0.61,2.79-0.93,3.77-1.26v4.36C189.3,215.36,188.33,214.56,186.96,213.43z M189.02,210.79c-0.12-0.16-0.27-0.37-0.33-0.46
	c0.02,0.03,0.05,0.07,0.09,0.13c-3.48,1.08-6.59,2.05-9.7,3.01c-0.19-0.39-0.38-0.79-0.57-1.18c4.55-3.23,9.09-6.45,14.25-10.12
	c0.13,0.02,0.37,0.04,0.49,0.06c1.85-2.74,3.55-5.25,5.06-7.48c1.67,0.15,3.26,0.28,4.84,0.42c0.18,0.62,0.36,1.25,0.54,1.84
	c-1.09,2.12-2.22,4.32-3.5,6.84c-0.2,0.07-1.11,0.4-2.98,1.08c2.06,0.48,3.17,0.74,6.1,1.42c-1.58,0.46-2.09,0.61-2.61,0.76
	c0,0.01-0.01,0.01-0.01,0.02c-1.16-0.4-2.33-0.81-3.8-1.32c0.07,1.04,0.1,1.6,0.15,2.3C194.46,208.97,191.85,209.85,189.02,210.79z
	 M193.23,191.87c-0.38,0.24-0.75,0.47-1.31,0.83c-0.19-1.33-0.37-2.59-0.63-4.35c1.79,0.45,3.28,0.82,5.23,1.3
	c-2.15,4.17-4.03,7.8-6.16,11.94c-0.75-1.06-1.02-1.44-1.4-1.97c-0.25,0.38-0.51,0.77-0.77,1.15c-0.28-0.19-0.55-0.38-0.83-0.57
	c2.08-2.65,4.16-5.29,6.23-7.94C193.47,192.13,193.35,192,193.23,191.87z M186.95,190.74c0.72,1.25,1.43,2.49,2.32,4.04
	c-1.63,0.81-2.93,1.46-4.13,2.05C181.47,193.86,182,191.87,186.95,190.74z M185.43,188.58c0.34-0.42,0.68-0.83,1.02-1.25
	c1.16,0.35,2.33,0.71,3.87,1.17c-0.82,0.96-1.22,1.43-1.48,1.74C187.53,189.6,186.48,189.09,185.43,188.58z M185.75,201.99
	c-0.65,1.67-0.74,2.74-1.28,3.08c-0.57,0.35-1.58-0.02-2.4-0.07c-0.08-0.36-0.16-0.72-0.24-1.07
	C182.81,203.44,183.78,202.96,185.75,201.99z M174.13,198.02c-0.72-0.08-1.53-0.16-2.92-0.31c3.68-4.29,7.06-8.24,10.44-12.19
	c0.63,0.52,1.26,1.04,1.89,1.57C180.43,190.71,177.31,194.33,174.13,198.02z M179.76,196.25c0.09-0.02,0.84-0.14,1.71-0.29
	c0.56,0.52,1.2,1.1,2.34,2.16c-1.74,2-3.44,3.95-5.28,6.07c-1.3-1.41-2.33-2.53-3.73-4.05C176.51,198.8,177.9,197.71,179.76,196.25z
	 M181.31,208.01c-1.03-0.55-1.54-0.81-2.25-1.19c0.35-0.58,0.61-0.99,1.09-1.78C180.57,206.1,180.84,206.8,181.31,208.01z
	 M203.16,195.17c-1.86-0.86-3.73-1.72-5.68-2.62c0.09-0.8,0.24-2.22,0.4-3.64c2.91,0.13,5.65,0.26,8.92,0.41v3.89
	c-0.87,0.46-2.26,1.2-3.65,1.93C203.15,195.15,203.16,195.16,203.16,195.17z M198.65,207.74c0.73-0.21,1.37-0.39,2.01-0.57
	c-0.93,1.56-1.85,3.11-2.78,4.67l-1.12-0.68c0.67-0.81,1.36-1.6,1.97-2.45C198.87,208.54,198.7,208.14,198.65,207.74z
	 M196.52,212.72c-0.81,0.39-1.67,0.8-3.8,1.81c1.18-2.27,1.73-3.34,2.42-4.67C195.72,211.06,196.07,211.79,196.52,212.72z
	 M209.32,219.91c-0.26,0.6-0.64,1.45-1.09,2.46c-0.7-0.44-1.37-0.87-2.49-1.57c-4.01,0.31-8.47,0.65-13.36,1.03
	c-0.04-0.12-0.26-0.87-0.57-1.92H209.32z M206.85,216.02c-0.02,0.37-0.04,0.84-0.07,1.37c-0.85-0.69-1.57-1.28-3.05-2.49
	c0.43,1.73,0.6,2.43,0.83,3.32c-3.1-0.15-6.05-0.29-8.99-0.43c-0.01-0.23-0.02-0.46-0.03-0.68c0.86-0.09,1.72-0.19,2.82-0.31
	c-0.2-0.38-0.37-0.7-0.39-0.74c2.29-2.01,4.57-4.02,7.4-6.5c0.11,0.02,0.63,0.1,0.62,0.1c0.28-2.96,0.56-5.83,0.85-8.91h4.38
	c0.02-0.18,0.04-0.36,0.06-0.54c-0.99-0.33-1.98-0.67-3.12-1.05v-1.92c4.28,0.47,8.53,0.94,12.78,1.41c-0.02-0.2-0.03-0.4-0.05-0.6
	c1.69-0.3,3.37-0.59,5.06-0.89c0.09,2.85,0.9,5.91-3.55,5.73c1.16,0.41,2.32,0.81,3.75,1.31c-0.15,1.19-0.29,2.33-0.43,3.47
	c-3.98,2.96-7.95,5.93-11.61,8.65c-1.48,0.28-2.56,0.49-4.34,0.83C209.29,216.95,208.1,216.5,206.85,216.02z M208.75,190.83
	c0.56-0.59,1.2-1.26,1.9-1.99c4.39-0.73,8.96-1.49,13.62-2.26c-0.12,0.51-0.21,0.88-0.41,1.69c0.98-0.5,1.64-0.83,2.28-1.16
	c-0.12,0.18-0.23,0.34-0.31,0.46c-0.44,3.28-0.74,5.59-1.05,7.91c-3.55,0.4-6.73,0.76-9.91,1.12c0.12-0.55,0.24-1.1,0.36-1.65
	c-1.85-0.55-3.7-1.1-5.55-1.65c1.08,0.86,2.16,1.73,3.24,2.59l-0.75,1c-1.21-0.91-2.41-1.82-3.62-2.73c0.3-0.29,0.6-0.58,0.9-0.87
	C209.21,192.44,208.97,191.59,208.75,190.83z M232.16,198.01c-0.96,1.68-1.74,3.06-2.66,4.66c-0.59-1.91-1.07-3.46-1.66-5.34
	C229.25,197.55,230.6,197.76,232.16,198.01z M232.53,200.66h4.1c0.11-0.15,0.23-0.3,0.34-0.45c-0.82-0.54-1.64-1.09-2.73-1.82
	c0.62-3.97,3.43-6.43,7.04-9.1c7.87-5.82,15.05-12.58,22.51-18.96c1.38-1.18,2.74-2.37,4.37-3.78c-0.25,2.09-0.46,3.77-0.66,5.45
	c0.23,0.04,0.46,0.07,0.69,0.11c0.88-2.66,1.76-5.31,2.57-7.78c4.96-1.06,7.76,1.98,9.19,4.94c1.49,3.08,1.13,7.05,1.14,10.68
	c0.35,2.15,2.29,3.74-1.55,5.88c-3.39,1.89-5.34,6.15-8.36,8.9c-6.84,6.23-14.78,10.21-24.31,10.21c-4.44,0-8.88-0.11-13.32-0.2
	c-0.82-0.02-1.64-0.15-2.72-0.25C231.46,203.08,231.96,201.95,232.53,200.66z M248.77,181.59c0.09,0.36,0.17,0.73,0.26,1.09
	c-3.55,2.17-7.1,4.34-11.02,6.74v-6.33C241.57,182.6,245.17,182.09,248.77,181.59z M239.84,180.32c3.85-2.08,8.06-4.32,12.22-6.66
	c0.38-0.21,0.44-0.99,0.64-1.53c1.46-0.33,2.95-0.58,4.38-1.01c1.67-0.51,3.29-1.17,5.08-1.83
	C256.41,177.05,249.48,181.89,239.84,180.32z M276.3,162.36c-0.21-0.42-0.34-0.87-0.58-1.51c0.74-0.61,1.35-1.1,1.96-1.6
	c0.16,0.3,0.31,0.6,0.47,0.91c2.91-1.47,5.82-2.94,9.05-4.57c-1.2,3.05-2.25,6.35-3.79,9.4C282.37,167.03,277.79,165.3,276.3,162.36
	z M247.28,172.49c-14.68-3.18-29.48-6.38-44.28-9.58c0.04-0.17,0.08-0.34,0.12-0.51c-1.27-0.1-2.55-0.2-3.82-0.3
	c-3.07-2.88-6.14-5.75-9.61-9c2.5-1.5,4.8-2.87,7.1-4.25c2.77-3.55,5.25-1.12,8.54-0.18c8.34,2.39,16.95,3.91,25.54,5.27
	c4.05,0.64,8.29,0.11,12.99,0.11C244.96,160.03,246.09,166.09,247.28,172.49z M199.31,162.12c-0.01-0.01-0.01-0.01-0.02-0.02
	c3.99,1.61,7.84,3.81,11.98,4.73c11.51,2.57,23.13,4.61,34.71,6.85c0.02,0.78,0.04,1.57,0.05,2.35c-7.47,2.63-14.8,5.86-22.46,7.71
	c-7.85,1.89-16.04,2.46-24.09,3.52c-1.24,0.16-2.54-0.17-3.81-0.28c-4.74-0.39-7.19-3.87-6.04-8.59c0.02-0.07,0.05-0.13,0.08-0.18
	c-1.16-8.27-2.25-16.05-3.43-24.4C190.85,156.73,195.08,159.42,199.31,162.12z M186.99,181.23c0.18,1.31,0.02,2.66,0.02,4.45
	c-7.2-1.89-13.95-4.39-19.65-9.18c-1.67-1.4-3.35-2.86-4.67-4.56c-0.43-0.55,0.23-1.96,0.39-2.97c0.59-0.08,1.17-0.17,1.76-0.25
	c-1.68-6.53-3.35-13.05-5.17-20.14c7.02,1.46,14.28,2.89,21.48,4.56c0.89,0.21,2,1.58,2.15,2.55
	C184.64,164.19,185.82,172.71,186.99,181.23z M155.28,144.82c-2.53,0.48-5.73-2.48-9.63-4.44c5.44-2.06,9.42-3.57,13.54-5.13
	c0.47,0.62,0.94,1.24,2.02,2.67C159.34,140.27,157.66,144.37,155.28,144.82z M188.91,228.19c6.87,1.07,12.94,2.02,19.57,3.05
	c-0.35,1.72-0.62,3.04-0.85,4.19c-5.69-1.37-11.02-2.66-16.43-3.97C190.71,230.75,190.15,229.95,188.91,228.19z M190.38,227.64
	c-2.02-0.17-4-0.86-5.62-2.32c4.91-0.78,9.82-1.56,16.3-2.59c6.69,1.32,14.7,2.89,23.09,4.55c-0.18-0.76-0.28-1.14-0.3-1.23
	c2.75-1.09,5.44-2.16,8.67-3.44c0.4-1.06,0.94-2.51,1.48-3.96c-1.42,1.05-2.76,2.23-4.29,3.1c-1.85,1.06-3.86,1.87-5.78,2.77
	c-4.4-0.22-8.69-0.43-12.32-0.61c-0.87-1.26-1.22-1.77-2.08-3c3.23-1.51,6.82-3.2,10.42-4.89c3.37-1.55,6.22-5.14,5.82-8.32
	c0.27,0.32,0.54,0.65,0.8,0.97c-0.01-0.42-0.02-0.84-0.04-1.26c4.96-0.38,9.92-0.75,15.11-1.15c-1.29,2.7-2.24,4.91-3.39,7.01
	c-0.88,1.61-2,3.08-3.02,4.61c0.85-0.35,1.7-0.7,2.8-1.16c-0.61,3.96-1.17,7.73-1.82,11.49c-0.05,0.3-0.73,0.66-1.14,0.7
	c-4.67,0.37-9.37,1.12-14.02,0.91C210.83,229.37,200.61,228.48,190.38,227.64z M245.09,223.07
	C245.09,223.07,245.08,223.07,245.09,223.07c-1.17,1.44-2.22,2.99-3.54,4.27c-0.5,0.49-1.59,0.36-2.9,0.61
	c0.63-3.75,1.2-7.1,1.78-10.51C242.12,219.48,243.6,221.27,245.09,223.07z M241.42,230.43c0.31,0.35,1.2,1.34,2.39,2.67
	c-10.67,6.08-21.65,5.05-32.8,3.25c-0.11-1.81-0.19-3.11-0.23-3.79C220.87,231.86,230.85,231.17,241.42,230.43z M242.02,229.01
	c3.78-0.19,6.5-0.33,10.65-0.54c-3.29,1.53-5.21,2.41-7.35,3.41C244.48,231.14,243.72,230.48,242.02,229.01z M269.46,216.09
	c1.14,1.4,2.02,2.48,3.22,3.94h-5.79C267.99,218.35,268.65,217.34,269.46,216.09z M255.5,205.94c6.72-3.35,13.08-6.53,18.28-9.12
	c2.52-3.17,4.3-5.41,6.07-7.63c0.78,0.22,1.38,0.39,1.98,0.56c0.16-0.21,0.32-0.41,0.48-0.62c-0.6-0.19-1.2-0.38-1.78-0.56
	c0.93-0.88,1.45-1.37,2.07-1.95c0.87,2.78,1.71,5.48,2.85,9.16c-0.03-0.17,0.41,0.74,0.13,1.28c-0.43,0.84-1.31,1.49-2.08,2.12
	c-0.55,0.45-1.23,0.74-2.69,1.58c0.16,0.02,0.24,0.03,0.3,0.04c-0.07-0.01-0.19-0.02-0.22-0.03c-2.99,3.12-5.74,5.98-8.61,8.98
	C266.71,208.48,261.16,207.22,255.5,205.94z M282.71,172.56c2.39,2.88,4.05,4.87,5.84,7.03c-1.31,0.76-2.59,1.5-4.29,2.49
	C283.79,179.16,283.35,176.47,282.71,172.56z M291.04,198.53c-1.56-2.68-3.02-5.17-4.47-7.66c-0.53-0.12-1.06-0.25-1.59-0.37
	c1.61-2.93,3.22-5.85,5.26-9.55c4.09,4.62,7.43,8.4,11.14,12.6C297.48,195.42,294.32,196.94,291.04,198.53z M357.06,118.92
	c-1.32,2.22-2.75,4.64-4.43,7.46c-3.3-0.98-6.38-2.19-9.58-2.8c-8.81-1.69-17.65-3.2-26.49-4.67c-17.03-2.84-34.3-4.72-51.03-8.78
	c-7.98-1.93-14.96-7.93-22.39-12.09c0.17-0.6,0.33-1.21,0.5-1.81c2.62-0.27,5.26-0.39,7.85-0.84c8.25-1.45,15.12,3.13,22.66,4.8
	c14.41,3.19,29.03,5.47,43.61,7.82c13.45,2.17,26.96,3.94,41.5,6.04C358.16,116.46,357.67,117.56,357.06,118.92z M305.88,88.53v2.28
	h-8.58c-0.02-0.16-0.05-0.33-0.07-0.49C300.06,89.73,302.89,89.15,305.88,88.53z M290.43,93.14h6.73c1.31,1.04,2.49,1.97,3.66,2.9
	c-3.5-0.7-6.99-1.4-10.49-2.09L290.43,93.14z M296.95,97.33c5.96,2.36,12.82,2.72,19.33,3.32c5.58,0.52,11.25,0.11,16.59,0.11
	c0.8,1.07,1.2,1.61,1.8,2.43c0.65-0.53,1.22-0.99,2.27-1.84c6.27,0.65,13.17,1.36,20.13,2.09c0.68,3.28,1.36,6.5,1.88,9
	c-14.51-2.14-28.6-4.1-42.65-6.33c-13.55-2.15-27.09-4.43-40.57-7.01c-3.94-0.75-7.63-2.75-12.24-4.47
	C275.48,92.66,286.18,93.06,296.95,97.33z M237.02,82.72c3.57-7.68,7.51-15.21,11.69-22.58c2.12-3.73,5.22-6.89,7.68-10.45
	c4.57-6.59,8.99-13.27,13.49-19.9c0.12-0.17,0.39-0.24,1.24-0.73c3.02,21.29,13.76,40.51,13.06,62.14
	c-16.27,1.17-32.84,2.36-50.51,3.63C234.89,90.25,235.39,86.22,237.02,82.72z M225.12,103.22c0-2.94,0.29-5.88,0.46-9.01
	c2.93,0.74,5.24,1.33,6.86,1.73c1.15,10.63,9.3,16.06,14.64,23.17c-0.25,0.32-0.5,0.65-0.75,0.97c-6.86-3.58-13.84-6.97-20.47-10.94
	C224.8,108.49,225.13,105.25,225.12,103.22z M213.86,92.45c2.51,1.01,5.54,0.76,8.57,1.1v13.16c-5.89-3.85-11.49-7.51-17.12-11.19
	C206.89,90.48,209.87,90.85,213.86,92.45z M198,119.77c-0.04,0.01-0.08,0.02-0.15,0.04c-0.18-3.08-0.33-5.58-0.48-8.09l0.5-0.03
	v-3.86c-0.16-0.13-0.33-0.26-0.49-0.39c0.75-4.34,1.51-8.69,2.14-12.34c14.77,8.36,29.23,17.09,44.2,24.86
	c15.38,7.98,31.85,13,49.95,13.84c-4.53,2.84-8.39,5.26-12.26,7.69c0.02,0.05,0.05,0.1,0.07,0.15c-1.82,0.98-3.54,2.39-5.48,2.85
	c-7.28,1.72-14.66,3-21.95,4.69c-4.21,0.97-8.26,3.21-12.46,3.46c-10.86,0.65-21.84,0.36-32.12-3.63
	c-6.05-2.35-11.64-5.91-17.09-8.74C194.26,133.35,196.08,126.75,198,119.77z M185.11,145.16c0.66-1.91,2.23-3.5,3.47-5.34
	c2.97,1.73,6.17,3.6,9.83,5.73c-4.42,2.51-8.42,4.78-12.43,7.05l-1.59-0.93C184.58,149.49,184.41,147.17,185.11,145.16z
	 M182.94,144.32c-1.34-1.22-2.25-2.05-3.21-2.92c1.43-0.74,2.71-1.41,4.58-2.38C183.84,140.82,183.46,142.31,182.94,144.32z
	 M183.67,136.97c-1.29,0.44-3.06,1.03-4.84,1.64c-1.62-1.88-3.05-3.54-4.48-5.2l-0.11,0.2c-1.34-1.21-2.69-2.43-5.03-4.54
	c-2.25-3.13-5.06-7.02-8.18-11.35c2.32-0.1,3.81-0.17,4.65-0.21C171.82,124.15,177.69,130.5,183.67,136.97z M155.46,108.31
	c1.71-0.82,2.6-1.24,4.03-1.92c1.59,2.52,3.32,5.24,5.38,8.49c-6.6,1.1-12.77,2.13-18.94,3.15c-0.28-0.63-0.57-1.26-0.85-1.89
	C148.79,113.34,152.51,110.53,155.46,108.31z M152.09,119.27c0,0.02,0,0.03,0,0.04c0-0.09,0.02-0.44,0.04-0.83
	c2.43-0.27,4.78-0.53,6.4-0.71c4.7,6.18,9.13,12.01,13.47,17.72c-2.18,0-5.53,0.91-7.79-0.27c-2.02-1.06-2.77-4.46-4.21-6.74
	c-1.42-2.25-3-4.39-5.27-6.1c1.55,3.24,3.11,6.48,4.82,10.05c-4.78,1.68-8.9,3.13-12.92,4.54c-0.98-5.29-1.81-9.73-2.64-14.16
	c-0.32,0.12-0.64,0.25-0.95,0.37l0.72,14.31c-0.64,0.06-1.28,0.12-1.91,0.18c-1.12-4.17-2.24-8.33-3.39-12.65
	c0.67-0.35,1.26-0.65,1.75-0.91c-0.92-1.29-1.85-2.58-3.47-4.85H152.09z M136.9,126.31c-0.09,0.52-0.45,1.35-0.32,2.09
	c1.51,8.36,4.51,16.12,9.21,23.27c1.94,2.95,2.97,6.49,4.91,9.44c1.36,2.07,3.54,3.6,4.87,5.99c-7.7,0.59-12.35-4.95-17.93-8.24
	c-7.4-4.37-1.43-12.61-5.32-18.58c2.08-0.44,3.42-0.72,4.89-1.03c-0.64-1.79-1.32-3.69-2-5.58c-0.25,0-0.5,0-0.75,0
	c0.09,1.46,0.19,2.92,0.29,4.4c-1.24,0.23-1.24,0.23-3.18-8.09c-0.56,2.58-0.95,3.83-1.08,5.11c-0.14,1.38-0.03,2.79-0.03,4.88
	c-2.99-1.63-5.51-3.01-7.64-4.18c-0.33-2.01-0.57-3.44-0.81-4.88c-1.86,7.94-1.33,15.44,3.82,22.11c-0.3,0.37-0.61,0.74-0.91,1.11
	c-7.37-3.96-14.75-7.92-22.28-11.97c3.78-5.18-2.22-13.66,7.21-15.45h-3.83c1.23-3.74,2.37-7.2,3.75-11.4
	c1.7,0.72,3.37,1.43,5.04,2.13c0.01-0.24,0.02-0.47,0.03-0.71l13.59,2.67C132.93,119.6,135.54,122,136.9,126.31z M124.87,78.77
	c0.96-4.17,1.8-7.87,2.65-11.57c0.46,0.03,0.92,0.05,1.37,0.08c0.23,3.87,0.46,7.74,0.72,12.19
	C127.22,79.12,125.86,78.92,124.87,78.77z M130.22,60.81c2.89,0.87,5.07,1.53,8.02,2.43c0.31,0.43,1.12,1.58,2.36,3.34
	c-2.53,2.73-5.06,5.45-7.58,8.17c-0.48,0.03-0.96,0.07-1.45,0.1C131.14,70.3,130.7,65.77,130.22,60.81z M129.92,89.85
	c0.56,2.25,0.98,3.9,1.39,5.56c-0.21,0.15-0.41,0.29-0.62,0.44c-1.81-2.3-3.62-4.59-6.25-7.92
	C127.07,88.85,128.74,89.43,129.92,89.85z M115.58,94.71c-0.3-2.55-0.58-4.87-0.86-7.28c9.16-0.15,18.83,12.28,18.73,29.17
	c-1.08,0.64-2.33,1.39-3.57,2.13c-0.24-4.22-0.44-7.9-0.65-11.58c-0.34,0.03-0.67,0.06-1.01,0.08v10.1
	c-5.1-1.19-10.09-2.35-15.09-3.51c0.15-0.53,0.3-1.05,0.44-1.58c1.73,0.81,3.47,1.62,5.2,2.42c-3.11-3.97-8.69-6.1-7.15-13.08
	c0.49-0.33,1.73-1.14,3.03-2c-0.6-0.84-1.21-1.7-1.88-2.63C114.02,95.96,114.93,95.23,115.58,94.71z M109.91,87.57
	c0.9,0.08,1.8,0.17,2.69,0.25c-0.01,0.35-0.03,0.7-0.04,1.04h-2.77L109.91,87.57z M102.54,78.58c1.84-2.16,3.33-4.61,6.13-6.91
	c-0.98,4.73-1.96,9.45-2.95,14.18C104.86,83.2,99.11,82.6,102.54,78.58z M100.14,81.77c1.4,2.09,2.61,3.9,4.4,6.56
	c0.16,0.08,0.71,0.36,1.27,0.64c-0.54-0.62-1.07-1.23-1.61-1.85c1.23-0.25,2.46-0.51,3.69-0.76c1.3,2.26,2.61,4.51,3.91,6.77
	c-0.2,0.22-0.39,0.45-0.59,0.67c-0.87-0.63-1.73-1.27-2.96-2.16c-0.12,0.09-0.66,0.52-1.57,1.23c1.58,1.12,2.85,2.01,4.11,2.9
	l-0.32,0.52c-0.64-0.31-1.29-0.62-1.93-0.93c0.05,0.29,0.09,0.59,0.14,0.88c-1.58,0.15-3.15,0.31-4.48,0.43
	c-0.37-2.35-0.56-3.61-0.76-4.88c-1.01-0.16-1.69-0.26-2.47-0.38c-0.27-1.1-0.54-2.15-0.8-3.2c-1.27-0.33-2.46-0.65-3.96-1.04
	C97.55,85.35,98.66,83.81,100.14,81.77z M94.13,94.25c0.13-0.2,0.26-0.41,0.39-0.61c-0.7-0.36-1.4-0.72-2.7-1.39
	c1.62-1.5,2.71-2.52,3.99-3.71c1.05,1.11,1.79,1.89,2.71,2.87c-0.93,0.99-1.74,1.85-2.54,2.71c0.74,0.59,1.65,1.32,2.55,2.03
	c-7.29,10.12-7.36,10.16-16.18,8.95c2.97-3.98,5.8-7.78,8.54-11.46C92.18,93.88,93.16,94.07,94.13,94.25z M86.07,90.63
	c-0.25,0.25-0.5,0.5-0.74,0.74c-1.27-0.85-2.54-1.7-3.98-2.67c0.44-0.67,0.8-1.22,1.59-2.43C84.18,88,85.13,89.31,86.07,90.63z
	 M84.1,85.33c-2.03,0.19-3.16,0.29-4.48,0.42c-0.14,0.27-0.37,0.73-0.75,1.49c-0.46-0.67-0.77-1.12-1.2-1.75
	c1.01-0.35,1.8-0.62,2.74-0.95c-0.03-0.66-0.06-1.31-0.1-2.17c0.65-0.03,1.5-0.32,1.79-0.04C82.79,83,83.22,83.94,84.1,85.33z
	 M78.02,91.54c-1.21,0.4-2.16,0.72-3.17,1.06c-0.09-1.62-0.15-2.78-0.21-3.95c0.31-0.32,0.63-0.65,0.94-0.97
	C76.33,88.85,77.06,90.02,78.02,91.54z M81.77,69.69c0.64,0.91,1.29,1.82,1.93,2.72c-0.33,0.21-0.65,0.43-0.98,0.64
	c-0.6-0.93-1.21-1.87-1.81-2.8C81.2,70.06,81.49,69.87,81.77,69.69z M81.09,80.3c-1.4-0.38-2.02-0.56-2.72-0.75
	c-0.05,0.64-0.09,1.19-0.16,2.09c-0.81-0.44-1.37-0.74-1.99-1.08c0.97-1.12,1.66-1.93,2.54-2.95C79.34,78.28,79.97,79,81.09,80.3z
	 M66.47,86.95c1.01-0.29,1.72-0.5,2.69-0.77c-0.35-1.25-0.69-2.43-1.05-3.72c0.71-0.4,1.38-0.78,2.05-1.16
	c-0.21-0.18-0.42-0.35-0.63-0.53c1.88-2.47,3.74-4.95,5.7-7.36c0.1-0.13,1.05,0.43,2.3,0.96c-1.29,0.35-1.78,0.48-2.02,0.55
	c-0.57,1.82-1.09,3.49-1.67,5.31c0.43,0.49,0.94,1.08,1.36,1.56c-1.49,3.48-2.95,6.9-4.57,10.7c-0.22,0.11-0.93,0.48-1.98,1.02
	c1.37,0.64,2.34,1.1,3.31,1.55c2.43-3.03,7.06-1.55,10.18,3.77c-2.79-1.14-4.78-1.95-6.76-2.77c-0.17,0.23-0.33,0.45-0.5,0.68
	c2.11,1.52,4.21,3.05,6.4,4.63c-5.46,8.96-11.02,18.09-16.49,27.07c-1.24-12.76-4.2-26.01,1.21-39.16c0.95,0.17,1.83,0.33,3.92,0.71
	C68.23,88.51,67.46,87.84,66.47,86.95z M81.95,108.57c-0.17,1.26-0.31,2.36-0.53,4c-1.36,0.3-2.91,0.65-5.67,1.27
	c1.92-2.56,3.08-4.1,4.38-5.83C80.74,108.2,81.37,108.4,81.95,108.57z M52.1,114.41c-2.48,4.37-4.52,7.98-6.57,11.58
	c0.29,0.17,0.58,0.35,0.88,0.52c1.7-2.74,3.33-5.53,5.12-8.22c0.93-1.41,2.36-2.51,3.15-3.98c1.25-2.35,2.15-4.89,3.2-7.35
	c-0.52-0.14-1.04-0.29-1.56-0.43c-0.43-0.66-1.38-1.59-1.21-1.93c2.5-4.7,5.15-9.32,7.8-14.03c-1.31,5.16-2.6,10.23-3.89,15.29
	c0.34-0.01,0.68-0.03,1.02-0.04c0.53,5.5,1.07,10.99,1.62,16.76c2.61,2.7,3.13,10.18,0.46,12.21c-3.68-1.73-3.88-8.13-9-7.89
	c3,3.45,5.98,6.87,8.28,9.52v10.67c-5.85-6.52-11.15-12.41-16.71-18.61c-0.1,0.01-0.72,0.04-1.61,0.1
	c-0.98-1.27-2.04-2.63-3.15-4.07C43.93,121.18,47.73,118.04,52.1,114.41z M46.79,113.12c-1.41,1.63-2.96,3.34-4.4,5.12
	c-3.33,4.12-5.97,3.66-8.78-2.12c2.92-2.07,5.93-4.21,9-6.39C44.16,110.99,45.56,112.12,46.79,113.12z M27.55,100.47
	c2.59,1.9,5.17,3.8,8.27,6.08c-1.85,2.24-3.48,4.21-5.13,6.2c-0.99-1.76-1.99-3.51-3.03-5.36c0.74-0.47,1.31-0.85,1.84-1.19
	c-0.88-1.79-1.74-3.55-2.6-5.31C27.12,100.75,27.34,100.61,27.55,100.47z M25.18,112.17c3.18,3.44,6.35,6.88,9.6,10.4
	c-2.73,1.38-4.83,2.68-7.1,3.46c-0.71,0.25-2.67-0.77-2.75-1.37c-0.49-4.01-0.63-8.06-0.89-12.1L25.18,112.17z M21.26,127.05
	l2.45,0.62c-0.13,0.44-0.27,0.88-0.4,1.33c-0.79-0.29-1.59-0.58-2.38-0.87C21.04,127.77,21.15,127.41,21.26,127.05z M29.81,153.64
	c-3.88-6.58-7.25-12.31-10.94-18.58c0.29-1.64,6.38-4.61,7.88-2.92c2.23,2.52,4.05,5.4,6.83,7.65c-2-3.37-4-6.75-5.99-10.11
	c2.93-1.7,5.46-3.17,8.61-5c0.6,0.76,1.44,1.81,2.95,3.72c0.08,0.04,1.17,0.64,2.74,1.49c-2.64,4.88-5.29,9.54-7.68,14.34
	c-0.74,1.48-0.53,3.42-1.18,4.97C32.47,150.55,31.32,151.63,29.81,153.64z M54.27,177.79c-2.71-3.2-5.42-6.41-8.38-9.91
	c-0.12,0.07-0.61,0.33-1.56,0.83c-0.71-2.68-1.34-5.06-1.7-6.42c-3.39-1.88-6.52-3.12-8.9-5.22c-0.8-0.71-0.04-3.72,0.64-5.43
	c1.19-3.03,2.85-5.88,4.73-9.62c0.08-0.06,0.95-0.75,1.81-1.43c-0.34-0.14-0.68-0.29-1.02-0.43l3.14-9.33
	c-0.16,0.59-0.33,1.18-0.49,1.77c5.66,4.86,11.6,9.44,16.9,14.67c3.65,3.6,0.36,8.13,0.16,12.24c-0.1,2.16-0.49,4.31-1.47,6.43
	l-1.95,10.34C55.54,176.78,54.9,177.29,54.27,177.79z M56.62,187.72c-0.21-0.25-0.42-0.5-0.63-0.75c1.01-1.38,2.02-2.75,3.16-4.31
	c0.55,0.43,1.13,0.88,2.07,1.62C59.52,185.56,58.07,186.64,56.62,187.72z M66.44,177.88c-1.37,1.5-2.59,2.84-4.01,4.4
	c-2.07-3.22-1.92-6.36,0.09-9.26c0.59-0.86,2.27-0.97,3.85-1.57c0.12,1.95,0.23,2.89,0.22,3.84
	C66.59,176.24,66.49,177.19,66.44,177.88z M64.78,169.48c-5.6-5.95-1.09-11.75-2.85-18.03c1.61,1.3,2.2,1.77,3.06,2.47
	c0.63-0.68,1.2-1.29,1.49-1.61c-5.95-5.17-1.45-11.45-3.11-16.93c1.05-0.14,1.69-0.22,1.79-0.24c2.93-6.26,5.65-12.08,8.6-18.37
	c2.71-0.46,5.72-0.98,8.72-1.49c0.31,0.46,0.62,0.91,0.93,1.37c-2.63,5.73-4.89,11.68-8.04,17.11c-1.82,3.14-5.21,5.35-7.64,8.19
	c-0.71,0.82-0.56,2.37-0.81,3.59l1.2,0.43c0.59-1.07,1.19-2.14,2.13-3.83c0.21-0.01,1.06-0.05,2.48-0.11
	c-1.61,2.86-2.86,5.11-4.42,7.88c0.46,0.14,1.16,0.36,2.04,0.63c-1.11,2.71-2.01,4.92-3.12,7.66c-0.01-0.02-0.02-0.02-0.03-0.03
	c0.07,0.08,0.31,0.39,0.44,0.56C66.7,162.29,65.82,165.56,64.78,169.48z M72.99,152.57c-1.21-3.3,9.42-29.75,12.02-30.65
	c0.21-2.2,0.39-4.1,0.59-6.2c1.69-0.23,3.04-0.42,4.92-0.68c-0.36,2.64-0.65,4.84-0.98,7.29c1.45,0.43,2.82,0.84,4.03,1.19
	c-8.13,14.24-3.51,29.54-4.55,44.37c-3.23,3.2-17.96,4.12-21.39,1.09C69.4,163.55,71.14,158.22,72.99,152.57z M70.5,175.08
	c-0.14-0.74-0.27-1.48-0.41-2.23c4.12-0.59,8.25-1.18,12.37-1.77c0.06,0.37,0.13,0.74,0.19,1.11
	C78.6,173.16,74.55,174.12,70.5,175.08z M82.99,183.89c-0.76,0.14-1.45,0.27-1.82,0.35c-2.75-2.44-5.17-4.59-8.25-7.33
	c3.03-0.85,5.27-1.4,7.46-2.12c2.47-0.82,4.98-1.61,7.32-2.73c4.65-2.23,4.93,1.23,5.78,4.15c-3.31,2.36-6.59,4.69-10.49,7.47
	V183.89z M103.06,203.73c-6.78-5.59-13.37-11.02-19.96-16.45c0.25-0.35,0.51-0.7,0.76-1.04c0.77-0.06,1.53-0.12,2.49-0.19
	c-0.36-0.49-0.67-0.9-0.81-1.09c3.07-1.99,6.01-3.89,9.23-5.98c0.73,1.82,1.33,3.3,2.11,5.23
	C99.51,185.94,104.06,198.91,103.06,203.73z M103.31,181.52c3.84-0.72,7.68-1.44,11.53-2.15l0.19,0.87
	c-3.83,0.96-7.67,1.92-11.5,2.88C103.45,182.59,103.38,182.05,103.31,181.52z M103.6,186.64c3.45-1.21,6.75-2.39,10.07-3.5
	c0.33-0.11,0.79,0.16,1.19,0.26c-0.31,0.4-0.54,0.98-0.94,1.16c-3.04,1.36-6.11,2.65-9.52,4.11
	C104.08,187.85,103.8,187.16,103.6,186.64z M104.7,190.65h6.7c-0.13-0.36-0.47-1.28-0.92-2.52h2.83c0.43,1.03,0.84,2.01,1.34,3.24
	h-1.83c0.05,0.49,0.09,0.91,0.14,1.43c-2.55,0.57-5.1,1.14-7.82,1.75C105.02,193.46,104.91,192.5,104.7,190.65z M106.54,195.79
	c0.71,0.25,1.24,0.43,1.8,0.63c0.13-0.41,0.27-0.82,0.4-1.22c0.34,0.13,0.67,0.27,1.01,0.4c-0.5,0.72-0.86,1.65-1.54,2.11
	c-0.64,0.43-1.61,0.36-2.85,0.59C105.8,197.37,106.14,196.66,106.54,195.79z M107.8,208.66c0.4-0.25,0.71-0.44,0.82-0.51
	c-0.64-1.51-1.81-2.93-1.49-3.84c0.42-1.21,2.01-2.01,2.71-3.41c-0.89,0.35-1.77,0.7-2.47,0.98c-0.28-0.65-0.46-1.06-0.75-1.73
	c2.55-1.59,5.4-3.37,8.61-5.37c0.39-0.75,1.04-1.98,1.76-3.36c-0.44-1.37-0.95-2.96-1.47-4.55c0.52-0.45,1.03-0.9,1.55-1.35
	c0.73,1.12,1.45,2.23,2.18,3.35c-0.43,0.26-0.86,0.51-1.29,0.77c0.58,1.57,1.15,3.15,1.94,5.31c-0.42,0.33-1.26,0.97-2.17,1.68
	c0.2,0.24,0.53,0.64,0.91,1.1c1.32-0.92,2.54-1.76,3.76-2.6c0.2-0.41,0.4-0.82,0.44-0.89c-0.75-1.23-1.41-2.29-2.04-3.33
	c2-1.39,3.56-2.49,5.13-3.58c-0.1-0.19-0.21-0.37-0.31-0.56c-1.45,0.64-2.9,1.28-4.68,2.07c-0.67-1.94-1.18-3.43-1.75-5.08
	c1.78,0.26,3.22,0.48,4.66,0.69c0.11-0.53,0.22-1.05,0.32-1.58c-1.88-0.43-3.77-0.85-5.84-1.32c1.5-3.69,5.56-3.04,9.32-3.49
	c-0.13,0.62-0.25,1.18-0.49,2.34c1.08-0.59,1.69-0.93,2.24-1.23c-0.06-0.82-0.11-1.54-0.17-2.26c0.41,0.53,0.83,1.07,1.41,1.84
	c0.58-0.64,1.22-1.34,1.77-1.95c1.09-0.22,2.08-0.41,3.27-0.64c0.69,0.65,1.54,1.44,2.61,2.44c-2.97,1.26-5.64,2.38-8.31,3.51
	c0.07,0.1,0.15,0.19,0.22,0.29c0.7-0.05,1.41-0.1,2.11-0.16c0.2,0.87,0.4,1.7,0.65,2.77c-0.7,0.5-1.48,1.06-2.43,1.74
	c0.94,1.42,1.69,2.57,2.63,3.99c-1.64,0.74-3.11,1.4-4.72,2.12c-0.1,0.6-0.21,1.28-0.35,2.11c0.83,0.26,1.55,0.49,2.78,0.88
	c-1.89,3.28-3.7,6.4-5.64,9.76c2.55,5.6-0.33,12.48-8.02,18.4c-1.31,0.16-2.51,0.3-4.51,0.54c-1.23-2.38-2.65-5.15-4.27-8.28
	c0.84-0.59,1.48-1.04,2.1-1.48C109.57,212.72,108.68,210.67,107.8,208.66z M113.89,254.06c0.73,1.22,1.2,1.99,2.2,3.64
	c-1.92-0.12-3.16-0.2-5.8-0.36c1.92-1.21,2.47-1.56,3.3-2.08c-1.33-0.33-2.45-0.61-3.58-0.89c-4.07-8.36,1.07-16.61-0.41-25.42
	c3.02-1.48,5.84-2.87,8.44-4.15c1.18,0.79,1.94,1.29,2.05,1.36c2.52-3.38,4.85-6.51,7.12-9.56c5.34,0.54,14.1,10.79,15.68,18.04
	c-0.67,1.08-1.32,2.12-1.97,3.17c0.18,0.13,0.36,0.27,0.54,0.4c0.84-0.68,1.68-1.36,2.52-2.04c0.43,0.16,0.85,0.32,1.28,0.47
	c-0.55,1.8-1.1,3.6-1.91,6.24c0.07,0.16,0.36,0.79,0.8,1.74c-0.84,0.49-1.86,1.09-2.89,1.69c0.28,0.35,0.56,0.71,0.84,1.06
	c2.2-1.51,4.4-3.02,7.87-5.4c-0.37,2.98-0.23,5.39-1.05,7.4c-0.92,2.23-2.44,4.43-4.26,5.99c-0.97,0.84-3.12,0.32-5.6,0.46
	c1.38-3.28,2.14-5.08,3.34-7.95c-3.06,0.66-5.36,1.17-8.03,1.75c0.32-1.45,0.61-2.76,0.9-4.07c-0.18-0.1-0.37-0.19-0.55-0.29
	c-1.07,1.76-2.13,3.52-3.63,6c-0.71-1.27-1.52-2.21-1.79-3.29c-1.24-5-2.1-10.1-3.56-15.02c-0.67-2.27-2.41-4.22-4.15-6.11
	c4.86,7.75,4.45,16.26,4.75,24.66C121.91,252.41,118.05,253.21,113.89,254.06z M149.66,255.25c-0.62,2.69-1.24,5.38-2.03,8.84
	c-2.23-1.52-3.44-2.34-5.37-3.66c2.34-2.1,4.29-3.84,6.23-5.58C148.88,254.98,149.27,255.11,149.66,255.25z M137.07,251.53
	c-0.34,1.16-0.66,2.21-1.05,3.52c-0.54-0.06-1-0.11-1.03-0.11c-0.51-1.28-0.9-2.27-1.35-3.4H137.07z M128.95,259.52
	c-1.11-2.54-1.81-4.14-2.51-5.74c0.37-0.24,0.75-0.48,1.12-0.72c1,0.87,2.01,1.74,3.16,2.74
	C130.27,256.74,129.89,257.55,128.95,259.52z M135.31,260.9h-4.58c0.45-0.96,0.73-1.55,1.05-2.25c1.32,0.42,2.5,0.8,3.67,1.17
	C135.4,260.18,135.36,260.54,135.31,260.9z M136.06,258.78c-0.63-0.64-1.05-1.49-1.55-2.26c0.17-0.13,0.34-0.27,0.51-0.4
	c0.82,0.55,1.65,1.11,3.01,2.02C137.05,258.47,136.23,258.94,136.06,258.78z M140.51,270.1c-0.92-1.15-2.62-3.27-4.28-5.35
	c2.37-3.03,5.9-2.28,9.18,1.76C143.76,267.72,142.25,268.82,140.51,270.1z M151.42,293.47c-0.49-0.47-0.97-0.95-1.46-1.42l2.66-0.9
	l0.6,0.66C152.62,292.37,152.02,292.92,151.42,293.47z M156.14,298.2c-0.86-2.74-1.5-4.81-2.26-7.23c-1.43-1.05-3.25-2.39-5.12-3.76
	c0.14-1.09,0.23-1.85,0.35-2.78c0.84,0.06,1.61,0.12,1.6,0.12c3.01,3.8,5.63,7.13,8.28,10.48
	C158.51,295.56,157.85,296.3,156.14,298.2z M181.83,308.28c-0.07-0.74-0.14-1.37-0.32-3.23c1.45,1.17,2.16,1.74,2.87,2.31
	C183.61,307.64,182.83,307.92,181.83,308.28z M193.4,293.36c0.26,0.83,0.51,1.65,0.77,2.48c-0.37,0.12-0.75,0.25-1.12,0.37
	c-0.3-0.8-0.6-1.6-0.9-2.4C192.56,293.66,192.98,293.51,193.4,293.36z M196.7,311.03c-0.33,0.33-0.66,0.66-1,0.99
	c-3.48-2.5-6.95-5.01-11-7.93c2.36-1.89,4.34-3.48,6.73-5.4C193.38,303.26,195.04,307.14,196.7,311.03z M188.42,291.51
	c0.41,0.69,1.08,1.86,2.09,3.58c-1.58-0.36-2.52-0.57-3.78-0.86c-0.44,1.4-0.8,2.56-1.16,3.71l0.71,0.32l1.65-1.9
	c0.24,0.24,0.48,0.48,0.72,0.71c-2.02,1.66-4.05,3.32-6.51,5.34c-0.28-1.29-0.46-2.1-0.65-2.94c-0.68,0.05-1.45,0.1-2.46,0.16
	c-0.45-0.64-0.93-1.32-1.27-1.8C181.28,295.76,184.69,293.73,188.42,291.51z M179.99,304.24c-0.61,0.37-1.2,0.73-1.92,1.17
	c-0.33-0.51-0.67-1.04-1.39-2.14c-0.54,2.08-0.94,3.61-1.47,5.66c-0.68,0.29-1.81,0.78-3.37,1.45c-0.07-0.97-0.12-1.65-0.19-2.67
	c-1.21-2.64-2.62-5.71-4.45-9.69c3.69,1.08,6.16,1.8,9.61,2.8C177.31,301.34,178.6,302.74,179.99,304.24z M163.45,286.06
	c3.09,2.87,6.76,6.29,10.44,9.7c-0.36,0.51-0.71,1.02-1.07,1.52c-1.56-0.41-3.12-0.82-4.42-1.16c-0.93-1.37-1.71-2.51-2.49-3.66
	c-0.27,0.08-0.54,0.16-0.81,0.24c0.26,1.91,0.52,3.82,0.73,5.34c-3.67-4.17-7.54-8.58-12.05-13.72c0.03-0.2,0.09-0.55,0.16-0.92
	c1.04,0.65,2.1,1.31,3.3,2.07v1.98C159.04,287.06,160.63,286.7,163.45,286.06z M154.11,272.62c1.66,2.86,3.32,5.73,5.53,9.54
	c-2.65-0.45-4.31-0.74-5.53-0.95c-0.49-3.25-0.87-5.71-1.24-8.18C153.28,272.9,153.7,272.76,154.11,272.62z M152.42,276.75
	c-1.36,0.1-2.23,0.17-3.22,0.24c-0.23-0.95-0.41-1.66-0.59-2.38c-0.28,0-0.55-0.01-0.83-0.01c-0.12,2.06-0.24,4.12-0.36,6.18
	c0.14,0,0.28-0.01,0.42-0.01l-0.58,3.78c-0.34,0.17-0.67,0.34-1.01,0.51c-0.49-1.56-1.44-3.14-1.36-4.67
	c0.12-2.27,0.97-4.5,1.79-7.92c-0.05,0.05,0.6-0.71,1.26-1.49C149.38,272.84,150.73,274.58,152.42,276.75z M150.35,269.89
	c-0.23,0.31-0.47,0.61-0.7,0.92c-0.61-0.46-1.22-0.91-1.82-1.37c0.18-0.27,0.35-0.55,0.53-0.82
	C149.02,269.05,149.68,269.47,150.35,269.89z M164.15,232.88c-1.37,1.53-2.53,2.82-3.86,4.3c-1.96-2.11-3.28-3.53-4.6-4.96
	c-0.23,0.13-0.46,0.26-0.7,0.39c1.16,1.84,2.32,3.68,4.14,6.59c-0.53,0.37-1.42,0.99-2.91,2.03c-3.59-1.84-7.03-3.6-10.53-5.39
	c1.45-2.93,2.41-4.84,3.5-7.06c5.19,0.95,10.66,1.86,16.08,3.03c0.85,0.18,1.49,1.39,2.21,2.16
	C166.1,233.52,164.74,233.07,164.15,232.88z M165.44,230.23c-1.68-0.26-3.27-1.04-4.9-1.59c0.21-0.7,0.42-1.4,0.63-2.1
	c2.56,0.6,5.12,1.2,7.68,1.81c0.01,0.41,0.01,0.82,0.02,1.22C167.71,229.82,166.52,230.4,165.44,230.23z M176.61,234.64l-7.83-2.42
	c0.21-0.73,0.43-1.46,0.64-2.19l7.82,2.16C177.04,233.01,176.82,233.83,176.61,234.64z M179.67,234.77
	c0.37-0.76,0.74-1.51,1.11-2.27c5.64,2.62,11.28,5.23,16.92,7.85c-0.28,0.6-0.56,1.2-0.84,1.8
	C191.12,239.69,185.39,237.23,179.67,234.77z M201.47,262.09c-3.82-5.36-7.25-10.15-11.28-15.8c8.53,0.54,11.3,6.08,14.94,10.93
	C204.08,258.61,203.16,259.84,201.47,262.09z M209.86,250.32c-1.06,0.2-2.09,0.39-3.01,0.56c-0.13,1.16-0.27,2.41-0.46,4.15
	c-3.9-3.51-7.25-6.53-10.96-9.88c0.01-0.02,0.15-0.66,0.36-1.57c1.33,0.57,2.46,1.06,3.96,1.7c-0.34-0.84-0.57-1.4-0.86-2.1
	c0.38-0.17,0.73-0.34,0.86-0.4c1.62,0.35,2.51,0.55,3.39,0.74c-0.57-0.8-1.13-1.59-1.74-2.44c6.91,0.03,12.26,2.52,15.33,9.71
	c-1.55-0.34-2.78-0.61-4.18-0.92c-0.06,0.55-0.13,1.22-0.23,2.18c-0.74,0.05-1.39,0.09-2.14,0.14
	C210.05,251.43,209.94,250.82,209.86,250.32z M217.34,260.52c-2.01-2.26-3.81-4.28-5.6-6.3c0.14-0.43,0.28-0.86,0.43-1.29
	c3.07,0.4,6.14,0.8,10.24,1.34C220.32,256.84,219.07,258.39,217.34,260.52z M220.33,252.64c-1.95-3.08-3.67-5.8-5.69-9
	c10.29,1.31,19.96,2.54,29.31,3.73c0.67,3.5,1.3,6.75,2.07,10.77C236.69,259.53,228.42,255.59,220.33,252.64z M244.82,244.29
	c-2.12,1.71-6.75,0.88-10.12,0.37c-12.04-1.81-24.06-3.81-36.02-6.1c-2.66-0.51-5.05-2.47-7.56-3.77c0.26-0.62,0.52-1.24,0.78-1.85
	c3.83,0.97,7.76,1.67,11.48,2.96c10.99,3.83,22.2,4.73,33.43,1.89c4.13-1.04,7.77-3.9,11.72-5.77c1.81-0.86,3.81-1.31,5.72-1.95
	c0.38,0.45,0.76,0.91,1.15,1.36C251.95,235.82,249.05,240.88,244.82,244.29z M251.24,242.04c0.64,1.16,1.19,2.14,1.9,3.42h-5.98
	C248.67,244.19,249.86,243.19,251.24,242.04z M247.6,256.77c-0.37-3.26-0.7-6.28-1.06-9.48h6.05c0.23,2.28,0.47,4.73,0.68,6.87
	C250.8,255.3,249.52,255.89,247.6,256.77z M252.71,240.06c1.25-2.92,2.47-5.76,3.79-8.83c2.03,2.62,4.02,4.36,4.87,6.54
	c0.88,2.26,0.65,4.96,0.91,7.57c-2.36,0.37-4.57,0.71-6.96,1.08C254.39,244.14,253.55,242.11,252.71,240.06z M283.22,248.17
	c0.64,0.04,1.76,2.47,1.55,3.58c-0.55,2.9-1.73,5.69-2.77,8.88c-7.37-1.59-6.28-10.81-12.4-12.64
	C274.14,248,278.69,247.85,283.22,248.17z M273.89,255.55c-4.49-2.81-8.44-5.29-12.48-7.82
	C264.89,245.6,271.55,249.64,273.89,255.55z M266.62,243.34c-0.35-0.56-0.71-1.12-1.06-1.68c2.67-1.27,5.33-2.54,8-3.81
	c0.19,0.23,0.39,0.45,0.58,0.68C271.63,240.13,269.12,241.73,266.62,243.34z M275.91,236.87c-0.3-0.22-0.61-0.44-0.91-0.65
	c1.51-2.09,3.02-4.19,4.53-6.28c0.3,0.22,0.61,0.44,0.91,0.66C278.93,232.68,277.42,234.77,275.91,236.87z M281.09,226.01
	c-3.19,0.58-6.38,1.16-9.57,1.73c-0.58-0.5-1.16-0.99-1.74-1.49c-0.48,0.92-0.94,1.79-1.39,2.64c-1.59-0.25-2.99-0.46-4.67-0.72
	c0.24-2.31,0.47-4.48,0.73-6.93c2.06,0.74,3.45,1.24,5.64,2.02c0.15-0.04,0.68-0.17,1.46-0.36c-0.52,0.99-1,1.9-1.46,2.78
	c2.15-1.42,4.21-3.18,6.58-3.85c1.85-0.52,4.19,0.68,7.29,1.31c-2.02,0.85-2.89,1.22-3.95,1.66
	C280.5,225.35,280.8,225.68,281.09,226.01z M292.38,211.54c-1.16,0.32-2.27,0.62-3.38,0.93c0.08,0.25,0.16,0.49,0.25,0.74
	c0.51-0.22,1.03-0.43,2.19-0.92c-0.38,2.03-0.69,3.65-1.02,5.38c-4.59,4.17-10.28,2.5-15.34,1.61c-2.14-0.37-3.64-4.35-4.94-7.29
	c6.31,2.06,11.49,0.58,16.85-2.5c0.21,0.04,0.91,0.17,1.6,0.31c-0.06-0.21-0.11-0.4-0.14-0.49c1.45-0.8,2.67-1.46,3.94-2.16
	c-0.13,0.84-0.25,1.64-0.37,2.44C292.15,210.26,292.27,210.94,292.38,211.54z M305.31,203.89c-4.14-0.7-8.28-1.39-13.82-2.32
	c4.12-2.73,6.87-4.55,10.29-6.81c1.68,2.74,3.18,5.2,4.69,7.66C306.07,202.91,305.69,203.4,305.31,203.89z M306.54,199.12
	c2.84,1.25,4.68,2.06,7.05,3.11c-1.63,0.68-2.87,1.19-4.97,2.06C308.08,202.92,307.52,201.55,306.54,199.12z M307.24,205.2H326
	c-8.51-4.47-18.8-3.37-23-13.57c18.61,4.29,37.06,5.8,55.71,1.84c0.23,1.6,0.38,2.67,0.7,4.87c-5.39,3.8-10.91,8.61-17.27,11.7
	c-2.34,1.14-6.68-1.74-10.07-2.89c-1.37-0.46-2.66-1.18-4.28-1.91c-1.38,3.72-2.51,6.75-3.7,9.95c-4.37-0.92-8.9-1.37-12.98-2.97
	C309.51,211.6,308.91,208.4,307.24,205.2z M315.21,220.87c-1.29-2.29-2.31-4.09-3.7-6.56c2.63,0.57,4.57,0.99,7.08,1.53
	C317.46,217.52,316.51,218.94,315.21,220.87z M361.82,232.5c-3.24-4.19-6.48-8.38-9.73-12.57l-1.15,1.1
	c3.35,3.75,6.7,7.5,10.35,11.58c-13.79,2.17-42.25-4.9-44.59-10.83c1.09-1.64,2.18-3.28,3.49-5.25h9.11
	c-1.85-0.97-2.47-1.3-3.4-1.78c0.92-2.46,1.85-4.95,2.77-7.4c6.69,2.79,13.22,5.52,19.75,8.24l0.23-0.46
	c6.16,1.86,12.33,3.72,19,5.74c-1.08,3.41-2.2,6.97-3.32,10.54C363.48,231.78,362.65,232.14,361.82,232.5z M365.62,233.57
	c1.54-4.93,2.76-8.88,4.17-13.4c1.86,0.31,3.92,0.66,6.07,1.02c1.37,4.88,2.71,9.63,4.31,15.33
	C374.89,235.45,370.2,234.5,365.62,233.57z M380.51,252.33c1.1-0.92,1.85-1.55,2.95-2.47c-0.75-0.17-1.75-0.7-2.14-0.42
	c-4.02,2.93-5.71-0.41-7.32-2.88c-1.78-2.72-3.02-5.78-4.49-8.7c0.01,0,0.01,0,0.02,0c0.1-0.38,0.06-0.94,0.31-1.12
	c1.97-1.46,11.64,1.97,12.26,4.37c1.08,4.13,2.06,8.29,3.18,12.79C383.69,253.37,382.23,252.89,380.51,252.33z M402.51,289.39
	c-1.74-2.27-3.37-4.38-4.1-5.34c-4.67-12.83-9.55-24.16-11.85-36.2c0.52-0.31,1.03-0.62,1.55-0.93c3.34,1.32,6.68,2.62,10,3.99
	c0.54,0.22,1.2,0.68,1.38,1.18c3.22,9.04,6.51,18.07,9.44,27.2c0.82,2.55,0.57,5.45,0.86,8.77
	C407.52,288.48,405.09,288.92,402.51,289.39z M413.49,286.26c-0.91-1.91-2.3-3.46-2.28-5.01c0.07-7.63-2.95-14.24-6.14-20.88
	c-1.33-2.77-2.11-5.81-3.12-8.7c9.22,0.6,14.19,5.68,16.5,17.17c0.8,3.96,1.34,7.98,2.03,12.18
	C418.4,282.58,416.32,284.14,413.49,286.26z M420.71,271.71c1.71,2.74,2.98,4.79,4.33,6.96c-0.89,0.72-1.55,1.26-2.8,2.27
	C421.72,277.82,421.28,275.15,420.71,271.71z M432.69,280.73c-3.64,5.21-7.7,6.69-10.94,3.34c1.94-1.65,3.55-3.65,5.65-4.56
	C428.63,278.97,430.62,280.19,432.69,280.73z M435,270.33c-2.7,2.53-5.4,5.06-8.43,7.9c-4.33-8.25-8.33-15.88-12.39-23.61
	c6.22-0.15,19.49,7.88,21.74,13.17c-0.6,0.46-1.26,0.97-1.92,1.48C434.33,269.62,434.66,269.98,435,270.33z"/>
</svg>
